<mxfile host="app.diagrams.net" modified="2023-09-16T07:37:32.605Z" agent="Mozilla/5.0 (Windows NT 10.0; Win64; x64) AppleWebKit/537.36 (KHTML, like Gecko) Chrome/116.0.0.0 Safari/537.36" etag="PQyqXhc5ZqsfB_hrHGLE" version="21.7.5" type="github">
  <diagram id="C5RBs43oDa-KdzZeNtuy" name="Page-1">
    <mxGraphModel dx="2954" dy="2181" grid="0" gridSize="10" guides="1" tooltips="1" connect="1" arrows="1" fold="1" page="0" pageScale="1" pageWidth="827" pageHeight="1169" math="0" shadow="0">
      <root>
        <mxCell id="WIyWlLk6GJQsqaUBKTNV-0" />
        <mxCell id="WIyWlLk6GJQsqaUBKTNV-1" parent="WIyWlLk6GJQsqaUBKTNV-0" />
        <mxCell id="VIdfA7fjar5SBpBOEZts-0" value="GameController" style="swimlane;fontStyle=1;align=center;verticalAlign=top;childLayout=stackLayout;horizontal=1;startSize=26;horizontalStack=0;resizeParent=1;resizeParentMax=0;resizeLast=0;collapsible=1;marginBottom=0;whiteSpace=wrap;html=1;labelBackgroundColor=none;fillColor=#F5AB50;strokeColor=#909090;fontColor=#1A1A1A;" parent="WIyWlLk6GJQsqaUBKTNV-1" vertex="1">
          <mxGeometry x="233" y="-780" width="303" height="1464" as="geometry" />
        </mxCell>
        <mxCell id="VIdfA7fjar5SBpBOEZts-1" value="- _gameState : GameState" style="text;strokeColor=none;fillColor=none;align=left;verticalAlign=top;spacingLeft=4;spacingRight=4;overflow=hidden;rotatable=0;points=[[0,0.5],[1,0.5]];portConstraint=eastwest;whiteSpace=wrap;html=1;labelBackgroundColor=none;fontColor=#1A1A1A;" parent="VIdfA7fjar5SBpBOEZts-0" vertex="1">
          <mxGeometry y="26" width="303" height="26" as="geometry" />
        </mxCell>
        <mxCell id="VIdfA7fjar5SBpBOEZts-7" value="- _board : Board" style="text;strokeColor=none;fillColor=none;align=left;verticalAlign=top;spacingLeft=4;spacingRight=4;overflow=hidden;rotatable=0;points=[[0,0.5],[1,0.5]];portConstraint=eastwest;whiteSpace=wrap;html=1;labelBackgroundColor=none;fontColor=#1A1A1A;" parent="VIdfA7fjar5SBpBOEZts-0" vertex="1">
          <mxGeometry y="52" width="303" height="26" as="geometry" />
        </mxCell>
        <mxCell id="VIdfA7fjar5SBpBOEZts-5" value="- _players : List&amp;lt;IPlayer&amp;gt;" style="text;strokeColor=none;fillColor=none;align=left;verticalAlign=top;spacingLeft=4;spacingRight=4;overflow=hidden;rotatable=0;points=[[0,0.5],[1,0.5]];portConstraint=eastwest;whiteSpace=wrap;html=1;labelBackgroundColor=none;fontColor=#1A1A1A;" parent="VIdfA7fjar5SBpBOEZts-0" vertex="1">
          <mxGeometry y="78" width="303" height="26" as="geometry" />
        </mxCell>
        <mxCell id="VIdfA7fjar5SBpBOEZts-13" value="- _currPlayer : int" style="text;strokeColor=none;fillColor=none;align=left;verticalAlign=top;spacingLeft=4;spacingRight=4;overflow=hidden;rotatable=0;points=[[0,0.5],[1,0.5]];portConstraint=eastwest;whiteSpace=wrap;html=1;labelBackgroundColor=none;fontColor=#1A1A1A;" parent="VIdfA7fjar5SBpBOEZts-0" vertex="1">
          <mxGeometry y="104" width="303" height="26" as="geometry" />
        </mxCell>
        <mxCell id="VIdfA7fjar5SBpBOEZts-12" value="- _playerPos : Dict&amp;lt;IPlayer, Tile&amp;gt;" style="text;strokeColor=none;fillColor=none;align=left;verticalAlign=top;spacingLeft=4;spacingRight=4;overflow=hidden;rotatable=0;points=[[0,0.5],[1,0.5]];portConstraint=eastwest;whiteSpace=wrap;html=1;labelBackgroundColor=none;fontColor=#1A1A1A;" parent="VIdfA7fjar5SBpBOEZts-0" vertex="1">
          <mxGeometry y="130" width="303" height="26" as="geometry" />
        </mxCell>
        <mxCell id="VIdfA7fjar5SBpBOEZts-11" value="- _playerCash : Dict&amp;lt;IPlayer, int&amp;gt;" style="text;strokeColor=none;fillColor=none;align=left;verticalAlign=top;spacingLeft=4;spacingRight=4;overflow=hidden;rotatable=0;points=[[0,0.5],[1,0.5]];portConstraint=eastwest;whiteSpace=wrap;html=1;labelBackgroundColor=none;fontColor=#1A1A1A;" parent="VIdfA7fjar5SBpBOEZts-0" vertex="1">
          <mxGeometry y="156" width="303" height="26" as="geometry" />
        </mxCell>
        <mxCell id="VIdfA7fjar5SBpBOEZts-10" value="- _playerProp : Dict&amp;lt;IPlayer, List&amp;lt;Property&amp;gt;" style="text;strokeColor=none;fillColor=none;align=left;verticalAlign=top;spacingLeft=4;spacingRight=4;overflow=hidden;rotatable=0;points=[[0,0.5],[1,0.5]];portConstraint=eastwest;whiteSpace=wrap;html=1;labelBackgroundColor=none;fontColor=#1A1A1A;" parent="VIdfA7fjar5SBpBOEZts-0" vertex="1">
          <mxGeometry y="182" width="303" height="26" as="geometry" />
        </mxCell>
        <mxCell id="VIdfA7fjar5SBpBOEZts-32" value="- _jailOrNot : Dict&amp;lt;IPlayer, bool&amp;gt;" style="text;strokeColor=none;fillColor=none;align=left;verticalAlign=top;spacingLeft=4;spacingRight=4;overflow=hidden;rotatable=0;points=[[0,0.5],[1,0.5]];portConstraint=eastwest;whiteSpace=wrap;html=1;labelBackgroundColor=none;fontColor=#1A1A1A;" parent="VIdfA7fjar5SBpBOEZts-0" vertex="1">
          <mxGeometry y="208" width="303" height="26" as="geometry" />
        </mxCell>
        <mxCell id="hoG8hrJg9u2dqEjmSY5--0" value="- _jailTurn : Dict&amp;lt;IPlayer, int&amp;gt;" style="text;strokeColor=none;fillColor=none;align=left;verticalAlign=top;spacingLeft=4;spacingRight=4;overflow=hidden;rotatable=0;points=[[0,0.5],[1,0.5]];portConstraint=eastwest;whiteSpace=wrap;html=1;labelBackgroundColor=none;fontColor=#1A1A1A;" parent="VIdfA7fjar5SBpBOEZts-0" vertex="1">
          <mxGeometry y="234" width="303" height="26" as="geometry" />
        </mxCell>
        <mxCell id="hoG8hrJg9u2dqEjmSY5--1" value="- _diceList : List&amp;lt;IDice&amp;gt;" style="text;strokeColor=none;fillColor=none;align=left;verticalAlign=top;spacingLeft=4;spacingRight=4;overflow=hidden;rotatable=0;points=[[0,0.5],[1,0.5]];portConstraint=eastwest;whiteSpace=wrap;html=1;labelBackgroundColor=none;fontColor=#1A1A1A;" parent="VIdfA7fjar5SBpBOEZts-0" vertex="1">
          <mxGeometry y="260" width="303" height="26" as="geometry" />
        </mxCell>
        <mxCell id="hoG8hrJg9u2dqEjmSY5--2" value="- _totalDice: List&amp;lt;int&amp;gt;" style="text;strokeColor=none;fillColor=none;align=left;verticalAlign=top;spacingLeft=4;spacingRight=4;overflow=hidden;rotatable=0;points=[[0,0.5],[1,0.5]];portConstraint=eastwest;whiteSpace=wrap;html=1;labelBackgroundColor=none;fontColor=#1A1A1A;" parent="VIdfA7fjar5SBpBOEZts-0" vertex="1">
          <mxGeometry y="286" width="303" height="26" as="geometry" />
        </mxCell>
        <mxCell id="VIdfA7fjar5SBpBOEZts-2" value="" style="line;strokeWidth=1;fillColor=none;align=left;verticalAlign=middle;spacingTop=-1;spacingLeft=3;spacingRight=3;rotatable=0;labelPosition=right;points=[];portConstraint=eastwest;strokeColor=#909090;labelBackgroundColor=none;fontColor=#1A1A1A;" parent="VIdfA7fjar5SBpBOEZts-0" vertex="1">
          <mxGeometry y="312" width="303" height="8" as="geometry" />
        </mxCell>
        <mxCell id="VIdfA7fjar5SBpBOEZts-3" value="&lt;i&gt;&amp;lt;&amp;lt;constructor&amp;gt;&amp;gt;&lt;/i&gt; + GameController(Board)" style="text;strokeColor=none;fillColor=none;align=left;verticalAlign=top;spacingLeft=4;spacingRight=4;overflow=hidden;rotatable=0;points=[[0,0.5],[1,0.5]];portConstraint=eastwest;whiteSpace=wrap;html=1;labelBackgroundColor=none;fontColor=#1A1A1A;" parent="VIdfA7fjar5SBpBOEZts-0" vertex="1">
          <mxGeometry y="320" width="303" height="26" as="geometry" />
        </mxCell>
        <mxCell id="VIdfA7fjar5SBpBOEZts-8" value="+ GetGameState(): GameState" style="text;strokeColor=none;fillColor=none;align=left;verticalAlign=top;spacingLeft=4;spacingRight=4;overflow=hidden;rotatable=0;points=[[0,0.5],[1,0.5]];portConstraint=eastwest;whiteSpace=wrap;html=1;labelBackgroundColor=none;fontColor=#1A1A1A;" parent="VIdfA7fjar5SBpBOEZts-0" vertex="1">
          <mxGeometry y="346" width="303" height="26" as="geometry" />
        </mxCell>
        <mxCell id="VIdfA7fjar5SBpBOEZts-14" value="+ SetGameState(GameState): void" style="text;strokeColor=none;fillColor=none;align=left;verticalAlign=top;spacingLeft=4;spacingRight=4;overflow=hidden;rotatable=0;points=[[0,0.5],[1,0.5]];portConstraint=eastwest;whiteSpace=wrap;html=1;labelBackgroundColor=none;fontColor=#1A1A1A;" parent="VIdfA7fjar5SBpBOEZts-0" vertex="1">
          <mxGeometry y="372" width="303" height="26" as="geometry" />
        </mxCell>
        <mxCell id="VIdfA7fjar5SBpBOEZts-6" value="+ AddPlayer(string) : void" style="text;strokeColor=none;fillColor=none;align=left;verticalAlign=top;spacingLeft=4;spacingRight=4;overflow=hidden;rotatable=0;points=[[0,0.5],[1,0.5]];portConstraint=eastwest;whiteSpace=wrap;html=1;labelBackgroundColor=none;fontColor=#1A1A1A;" parent="VIdfA7fjar5SBpBOEZts-0" vertex="1">
          <mxGeometry y="398" width="303" height="26" as="geometry" />
        </mxCell>
        <mxCell id="VIdfA7fjar5SBpBOEZts-25" value="+ ActivePlayer() : IPlayer" style="text;strokeColor=none;fillColor=none;align=left;verticalAlign=top;spacingLeft=4;spacingRight=4;overflow=hidden;rotatable=0;points=[[0,0.5],[1,0.5]];portConstraint=eastwest;whiteSpace=wrap;html=1;labelBackgroundColor=none;fontColor=#1A1A1A;" parent="VIdfA7fjar5SBpBOEZts-0" vertex="1">
          <mxGeometry y="424" width="303" height="26" as="geometry" />
        </mxCell>
        <mxCell id="hoG8hrJg9u2dqEjmSY5--12" value="+ GetPlayerIndex(int) : IPlayer" style="text;strokeColor=none;fillColor=none;align=left;verticalAlign=top;spacingLeft=4;spacingRight=4;overflow=hidden;rotatable=0;points=[[0,0.5],[1,0.5]];portConstraint=eastwest;whiteSpace=wrap;html=1;labelBackgroundColor=none;fontColor=#1A1A1A;" parent="VIdfA7fjar5SBpBOEZts-0" vertex="1">
          <mxGeometry y="450" width="303" height="26" as="geometry" />
        </mxCell>
        <mxCell id="hoG8hrJg9u2dqEjmSY5--61" value="+ GetPlayerCash() : Dictionary&amp;lt;IPlayer, int&amp;gt;" style="text;strokeColor=none;fillColor=none;align=left;verticalAlign=top;spacingLeft=4;spacingRight=4;overflow=hidden;rotatable=0;points=[[0,0.5],[1,0.5]];portConstraint=eastwest;whiteSpace=wrap;html=1;labelBackgroundColor=none;fontColor=#1A1A1A;" parent="VIdfA7fjar5SBpBOEZts-0" vertex="1">
          <mxGeometry y="476" width="303" height="26" as="geometry" />
        </mxCell>
        <mxCell id="VIdfA7fjar5SBpBOEZts-18" value="+ CurrentPlayer() : int" style="text;strokeColor=none;fillColor=none;align=left;verticalAlign=top;spacingLeft=4;spacingRight=4;overflow=hidden;rotatable=0;points=[[0,0.5],[1,0.5]];portConstraint=eastwest;whiteSpace=wrap;html=1;labelBackgroundColor=none;fontColor=#1A1A1A;" parent="VIdfA7fjar5SBpBOEZts-0" vertex="1">
          <mxGeometry y="502" width="303" height="26" as="geometry" />
        </mxCell>
        <mxCell id="VIdfA7fjar5SBpBOEZts-9" value="+ MoneyPlayer() : int" style="text;strokeColor=none;fillColor=none;align=left;verticalAlign=top;spacingLeft=4;spacingRight=4;overflow=hidden;rotatable=0;points=[[0,0.5],[1,0.5]];portConstraint=eastwest;whiteSpace=wrap;html=1;labelBackgroundColor=none;fontColor=#1A1A1A;" parent="VIdfA7fjar5SBpBOEZts-0" vertex="1">
          <mxGeometry y="528" width="303" height="26" as="geometry" />
        </mxCell>
        <mxCell id="VIdfA7fjar5SBpBOEZts-16" value="+ SwitchTurn() : boolean" style="text;strokeColor=none;fillColor=none;align=left;verticalAlign=top;spacingLeft=4;spacingRight=4;overflow=hidden;rotatable=0;points=[[0,0.5],[1,0.5]];portConstraint=eastwest;whiteSpace=wrap;html=1;labelBackgroundColor=none;fontColor=#1A1A1A;" parent="VIdfA7fjar5SBpBOEZts-0" vertex="1">
          <mxGeometry y="554" width="303" height="26" as="geometry" />
        </mxCell>
        <mxCell id="VIdfA7fjar5SBpBOEZts-19" value="+ SwitchTurn(IPlayer) : boolean" style="text;strokeColor=none;fillColor=none;align=left;verticalAlign=top;spacingLeft=4;spacingRight=4;overflow=hidden;rotatable=0;points=[[0,0.5],[1,0.5]];portConstraint=eastwest;whiteSpace=wrap;html=1;labelBackgroundColor=none;fontColor=#1A1A1A;" parent="VIdfA7fjar5SBpBOEZts-0" vertex="1">
          <mxGeometry y="580" width="303" height="26" as="geometry" />
        </mxCell>
        <mxCell id="VIdfA7fjar5SBpBOEZts-17" value="+ AddDice(int) : boolean" style="text;strokeColor=none;fillColor=none;align=left;verticalAlign=top;spacingLeft=4;spacingRight=4;overflow=hidden;rotatable=0;points=[[0,0.5],[1,0.5]];portConstraint=eastwest;whiteSpace=wrap;html=1;labelBackgroundColor=none;fontColor=#1A1A1A;" parent="VIdfA7fjar5SBpBOEZts-0" vertex="1">
          <mxGeometry y="606" width="303" height="26" as="geometry" />
        </mxCell>
        <mxCell id="VIdfA7fjar5SBpBOEZts-15" value="+ Roll() : int" style="text;strokeColor=none;fillColor=none;align=left;verticalAlign=top;spacingLeft=4;spacingRight=4;overflow=hidden;rotatable=0;points=[[0,0.5],[1,0.5]];portConstraint=eastwest;whiteSpace=wrap;html=1;labelBackgroundColor=none;fontColor=#1A1A1A;" parent="VIdfA7fjar5SBpBOEZts-0" vertex="1">
          <mxGeometry y="632" width="303" height="26" as="geometry" />
        </mxCell>
        <mxCell id="VIdfA7fjar5SBpBOEZts-23" value="+ Roll(int) : int" style="text;strokeColor=none;fillColor=none;align=left;verticalAlign=top;spacingLeft=4;spacingRight=4;overflow=hidden;rotatable=0;points=[[0,0.5],[1,0.5]];portConstraint=eastwest;whiteSpace=wrap;html=1;labelBackgroundColor=none;fontColor=#1A1A1A;" parent="VIdfA7fjar5SBpBOEZts-0" vertex="1">
          <mxGeometry y="658" width="303" height="26" as="geometry" />
        </mxCell>
        <mxCell id="VIdfA7fjar5SBpBOEZts-29" value="+ TotalDice() : int" style="text;strokeColor=none;fillColor=none;align=left;verticalAlign=top;spacingLeft=4;spacingRight=4;overflow=hidden;rotatable=0;points=[[0,0.5],[1,0.5]];portConstraint=eastwest;whiteSpace=wrap;html=1;labelBackgroundColor=none;fontColor=#1A1A1A;" parent="VIdfA7fjar5SBpBOEZts-0" vertex="1">
          <mxGeometry y="684" width="303" height="26" as="geometry" />
        </mxCell>
        <mxCell id="VIdfA7fjar5SBpBOEZts-28" value="+ GetTotalDice() : List&amp;lt;int&amp;gt;" style="text;strokeColor=none;fillColor=none;align=left;verticalAlign=top;spacingLeft=4;spacingRight=4;overflow=hidden;rotatable=0;points=[[0,0.5],[1,0.5]];portConstraint=eastwest;whiteSpace=wrap;html=1;labelBackgroundColor=none;fontColor=#1A1A1A;" parent="VIdfA7fjar5SBpBOEZts-0" vertex="1">
          <mxGeometry y="710" width="303" height="26" as="geometry" />
        </mxCell>
        <mxCell id="VIdfA7fjar5SBpBOEZts-26" value="+ Move() : void" style="text;strokeColor=none;fillColor=none;align=left;verticalAlign=top;spacingLeft=4;spacingRight=4;overflow=hidden;rotatable=0;points=[[0,0.5],[1,0.5]];portConstraint=eastwest;whiteSpace=wrap;html=1;labelBackgroundColor=none;fontColor=#1A1A1A;" parent="VIdfA7fjar5SBpBOEZts-0" vertex="1">
          <mxGeometry y="736" width="303" height="26" as="geometry" />
        </mxCell>
        <mxCell id="hoG8hrJg9u2dqEjmSY5--62" value="+&amp;nbsp;GetTile() : Tile" style="text;strokeColor=none;fillColor=none;align=left;verticalAlign=top;spacingLeft=4;spacingRight=4;overflow=hidden;rotatable=0;points=[[0,0.5],[1,0.5]];portConstraint=eastwest;whiteSpace=wrap;html=1;labelBackgroundColor=none;fontColor=#1A1A1A;" parent="VIdfA7fjar5SBpBOEZts-0" vertex="1">
          <mxGeometry y="762" width="303" height="26" as="geometry" />
        </mxCell>
        <mxCell id="VIdfA7fjar5SBpBOEZts-21" value="+&amp;nbsp;GetPlayerPosition() : int" style="text;strokeColor=none;fillColor=none;align=left;verticalAlign=top;spacingLeft=4;spacingRight=4;overflow=hidden;rotatable=0;points=[[0,0.5],[1,0.5]];portConstraint=eastwest;whiteSpace=wrap;html=1;labelBackgroundColor=none;fontColor=#1A1A1A;" parent="VIdfA7fjar5SBpBOEZts-0" vertex="1">
          <mxGeometry y="788" width="303" height="26" as="geometry" />
        </mxCell>
        <mxCell id="VIdfA7fjar5SBpBOEZts-24" value="+&amp;nbsp;GetPlayerPosition(IPlayer) : int" style="text;strokeColor=none;fillColor=none;align=left;verticalAlign=top;spacingLeft=4;spacingRight=4;overflow=hidden;rotatable=0;points=[[0,0.5],[1,0.5]];portConstraint=eastwest;whiteSpace=wrap;html=1;labelBackgroundColor=none;fontColor=#1A1A1A;" parent="VIdfA7fjar5SBpBOEZts-0" vertex="1">
          <mxGeometry y="814" width="303" height="26" as="geometry" />
        </mxCell>
        <mxCell id="VIdfA7fjar5SBpBOEZts-30" value="+&amp;nbsp;SetPlayerPosition(Tile) : void" style="text;strokeColor=none;fillColor=none;align=left;verticalAlign=top;spacingLeft=4;spacingRight=4;overflow=hidden;rotatable=0;points=[[0,0.5],[1,0.5]];portConstraint=eastwest;whiteSpace=wrap;html=1;labelBackgroundColor=none;fontColor=#1A1A1A;" parent="VIdfA7fjar5SBpBOEZts-0" vertex="1">
          <mxGeometry y="840" width="303" height="26" as="geometry" />
        </mxCell>
        <mxCell id="VIdfA7fjar5SBpBOEZts-20" value="+ TileName() : string" style="text;strokeColor=none;fillColor=none;align=left;verticalAlign=top;spacingLeft=4;spacingRight=4;overflow=hidden;rotatable=0;points=[[0,0.5],[1,0.5]];portConstraint=eastwest;whiteSpace=wrap;html=1;labelBackgroundColor=none;fontColor=#1A1A1A;" parent="VIdfA7fjar5SBpBOEZts-0" vertex="1">
          <mxGeometry y="866" width="303" height="26" as="geometry" />
        </mxCell>
        <mxCell id="hoG8hrJg9u2dqEjmSY5--63" value="+ TileName(string) : string" style="text;strokeColor=none;fillColor=none;align=left;verticalAlign=top;spacingLeft=4;spacingRight=4;overflow=hidden;rotatable=0;points=[[0,0.5],[1,0.5]];portConstraint=eastwest;whiteSpace=wrap;html=1;labelBackgroundColor=none;fontColor=#1A1A1A;" parent="VIdfA7fjar5SBpBOEZts-0" vertex="1">
          <mxGeometry y="892" width="303" height="26" as="geometry" />
        </mxCell>
        <mxCell id="hoG8hrJg9u2dqEjmSY5--64" value="+ GetPlayerByName(string) : IPlayer" style="text;strokeColor=none;fillColor=none;align=left;verticalAlign=top;spacingLeft=4;spacingRight=4;overflow=hidden;rotatable=0;points=[[0,0.5],[1,0.5]];portConstraint=eastwest;whiteSpace=wrap;html=1;labelBackgroundColor=none;fontColor=#1A1A1A;" parent="VIdfA7fjar5SBpBOEZts-0" vertex="1">
          <mxGeometry y="918" width="303" height="26" as="geometry" />
        </mxCell>
        <mxCell id="VIdfA7fjar5SBpBOEZts-27" value="+ TileDescription() : string" style="text;strokeColor=none;fillColor=none;align=left;verticalAlign=top;spacingLeft=4;spacingRight=4;overflow=hidden;rotatable=0;points=[[0,0.5],[1,0.5]];portConstraint=eastwest;whiteSpace=wrap;html=1;labelBackgroundColor=none;fontColor=#1A1A1A;" parent="VIdfA7fjar5SBpBOEZts-0" vertex="1">
          <mxGeometry y="944" width="303" height="26" as="geometry" />
        </mxCell>
        <mxCell id="VIdfA7fjar5SBpBOEZts-39" value="+ TileAction(Tile) : void" style="text;strokeColor=none;fillColor=none;align=left;verticalAlign=top;spacingLeft=4;spacingRight=4;overflow=hidden;rotatable=0;points=[[0,0.5],[1,0.5]];portConstraint=eastwest;whiteSpace=wrap;html=1;labelBackgroundColor=none;fontColor=#1A1A1A;" parent="VIdfA7fjar5SBpBOEZts-0" vertex="1">
          <mxGeometry y="970" width="303" height="26" as="geometry" />
        </mxCell>
        <mxCell id="hoG8hrJg9u2dqEjmSY5--65" value="+ IsNotChanceOrCommunityChest(Tile) : boolean" style="text;strokeColor=none;fillColor=none;align=left;verticalAlign=top;spacingLeft=4;spacingRight=4;overflow=hidden;rotatable=0;points=[[0,0.5],[1,0.5]];portConstraint=eastwest;whiteSpace=wrap;html=1;labelBackgroundColor=none;fontColor=#1A1A1A;" parent="VIdfA7fjar5SBpBOEZts-0" vertex="1">
          <mxGeometry y="996" width="303" height="26" as="geometry" />
        </mxCell>
        <mxCell id="VIdfA7fjar5SBpBOEZts-37" value="+ MoveToJail() : void" style="text;strokeColor=none;fillColor=none;align=left;verticalAlign=top;spacingLeft=4;spacingRight=4;overflow=hidden;rotatable=0;points=[[0,0.5],[1,0.5]];portConstraint=eastwest;whiteSpace=wrap;html=1;labelBackgroundColor=none;fontColor=#1A1A1A;" parent="VIdfA7fjar5SBpBOEZts-0" vertex="1">
          <mxGeometry y="1022" width="303" height="26" as="geometry" />
        </mxCell>
        <mxCell id="VIdfA7fjar5SBpBOEZts-22" value="+ JailedPlayer() : List&amp;lt;IPlayer&amp;gt;" style="text;strokeColor=none;fillColor=none;align=left;verticalAlign=top;spacingLeft=4;spacingRight=4;overflow=hidden;rotatable=0;points=[[0,0.5],[1,0.5]];portConstraint=eastwest;whiteSpace=wrap;html=1;labelBackgroundColor=none;fontColor=#1A1A1A;" parent="VIdfA7fjar5SBpBOEZts-0" vertex="1">
          <mxGeometry y="1048" width="303" height="26" as="geometry" />
        </mxCell>
        <mxCell id="VIdfA7fjar5SBpBOEZts-38" value="+ GetOutOfJailByDice() : boolean" style="text;strokeColor=none;fillColor=none;align=left;verticalAlign=top;spacingLeft=4;spacingRight=4;overflow=hidden;rotatable=0;points=[[0,0.5],[1,0.5]];portConstraint=eastwest;whiteSpace=wrap;html=1;labelBackgroundColor=none;fontColor=#1A1A1A;" parent="VIdfA7fjar5SBpBOEZts-0" vertex="1">
          <mxGeometry y="1074" width="303" height="26" as="geometry" />
        </mxCell>
        <mxCell id="VIdfA7fjar5SBpBOEZts-40" value="+ PayToGetOutOfJail() : boolean" style="text;strokeColor=none;fillColor=none;align=left;verticalAlign=top;spacingLeft=4;spacingRight=4;overflow=hidden;rotatable=0;points=[[0,0.5],[1,0.5]];portConstraint=eastwest;whiteSpace=wrap;html=1;labelBackgroundColor=none;fontColor=#1A1A1A;" parent="VIdfA7fjar5SBpBOEZts-0" vertex="1">
          <mxGeometry y="1100" width="303" height="26" as="geometry" />
        </mxCell>
        <mxCell id="VIdfA7fjar5SBpBOEZts-41" value="+ GetJailTile() : Jail" style="text;strokeColor=none;fillColor=none;align=left;verticalAlign=top;spacingLeft=4;spacingRight=4;overflow=hidden;rotatable=0;points=[[0,0.5],[1,0.5]];portConstraint=eastwest;whiteSpace=wrap;html=1;labelBackgroundColor=none;fontColor=#1A1A1A;" parent="VIdfA7fjar5SBpBOEZts-0" vertex="1">
          <mxGeometry y="1126" width="303" height="26" as="geometry" />
        </mxCell>
        <mxCell id="VIdfA7fjar5SBpBOEZts-47" value="+ NotifyPlayer(string, string) : void" style="text;strokeColor=none;fillColor=none;align=left;verticalAlign=top;spacingLeft=4;spacingRight=4;overflow=hidden;rotatable=0;points=[[0,0.5],[1,0.5]];portConstraint=eastwest;whiteSpace=wrap;html=1;labelBackgroundColor=none;fontColor=#1A1A1A;" parent="VIdfA7fjar5SBpBOEZts-0" vertex="1">
          <mxGeometry y="1152" width="303" height="26" as="geometry" />
        </mxCell>
        <mxCell id="VIdfA7fjar5SBpBOEZts-42" value="+ PayTax(Tile) : TaxUtilityState" style="text;strokeColor=none;fillColor=none;align=left;verticalAlign=top;spacingLeft=4;spacingRight=4;overflow=hidden;rotatable=0;points=[[0,0.5],[1,0.5]];portConstraint=eastwest;whiteSpace=wrap;html=1;labelBackgroundColor=none;fontColor=#1A1A1A;" parent="VIdfA7fjar5SBpBOEZts-0" vertex="1">
          <mxGeometry y="1178" width="303" height="26" as="geometry" />
        </mxCell>
        <mxCell id="VIdfA7fjar5SBpBOEZts-43" value="+ PayUtility(Tile) : TaxUtilityState" style="text;strokeColor=none;fillColor=none;align=left;verticalAlign=top;spacingLeft=4;spacingRight=4;overflow=hidden;rotatable=0;points=[[0,0.5],[1,0.5]];portConstraint=eastwest;whiteSpace=wrap;html=1;labelBackgroundColor=none;fontColor=#1A1A1A;" parent="VIdfA7fjar5SBpBOEZts-0" vertex="1">
          <mxGeometry y="1204" width="303" height="26" as="geometry" />
        </mxCell>
        <mxCell id="hoG8hrJg9u2dqEjmSY5--119" value="+ PayRent(Property) : void" style="text;strokeColor=none;fillColor=none;align=left;verticalAlign=top;spacingLeft=4;spacingRight=4;overflow=hidden;rotatable=0;points=[[0,0.5],[1,0.5]];portConstraint=eastwest;whiteSpace=wrap;html=1;labelBackgroundColor=none;fontColor=#1A1A1A;" parent="VIdfA7fjar5SBpBOEZts-0" vertex="1">
          <mxGeometry y="1230" width="303" height="26" as="geometry" />
        </mxCell>
        <mxCell id="VIdfA7fjar5SBpBOEZts-44" value="+ PlayerProperty() : List&amp;lt;Property&amp;gt;" style="text;strokeColor=none;fillColor=none;align=left;verticalAlign=top;spacingLeft=4;spacingRight=4;overflow=hidden;rotatable=0;points=[[0,0.5],[1,0.5]];portConstraint=eastwest;whiteSpace=wrap;html=1;labelBackgroundColor=none;fontColor=#1A1A1A;" parent="VIdfA7fjar5SBpBOEZts-0" vertex="1">
          <mxGeometry y="1256" width="303" height="26" as="geometry" />
        </mxCell>
        <mxCell id="VIdfA7fjar5SBpBOEZts-45" value="+ BuyProperty() : PropState" style="text;strokeColor=none;fillColor=none;align=left;verticalAlign=top;spacingLeft=4;spacingRight=4;overflow=hidden;rotatable=0;points=[[0,0.5],[1,0.5]];portConstraint=eastwest;whiteSpace=wrap;html=1;labelBackgroundColor=none;fontColor=#1A1A1A;" parent="VIdfA7fjar5SBpBOEZts-0" vertex="1">
          <mxGeometry y="1282" width="303" height="26" as="geometry" />
        </mxCell>
        <mxCell id="VIdfA7fjar5SBpBOEZts-46" value="+ SellProperty() : boolean" style="text;strokeColor=none;fillColor=none;align=left;verticalAlign=top;spacingLeft=4;spacingRight=4;overflow=hidden;rotatable=0;points=[[0,0.5],[1,0.5]];portConstraint=eastwest;whiteSpace=wrap;html=1;labelBackgroundColor=none;fontColor=#1A1A1A;" parent="VIdfA7fjar5SBpBOEZts-0" vertex="1">
          <mxGeometry y="1308" width="303" height="26" as="geometry" />
        </mxCell>
        <mxCell id="VIdfA7fjar5SBpBOEZts-49" value="+ BuyHouse() : boolean" style="text;strokeColor=none;fillColor=none;align=left;verticalAlign=top;spacingLeft=4;spacingRight=4;overflow=hidden;rotatable=0;points=[[0,0.5],[1,0.5]];portConstraint=eastwest;whiteSpace=wrap;html=1;labelBackgroundColor=none;fontColor=#1A1A1A;" parent="VIdfA7fjar5SBpBOEZts-0" vertex="1">
          <mxGeometry y="1334" width="303" height="26" as="geometry" />
        </mxCell>
        <mxCell id="VIdfA7fjar5SBpBOEZts-48" value="+ BuyHotel() : boolean" style="text;strokeColor=none;fillColor=none;align=left;verticalAlign=top;spacingLeft=4;spacingRight=4;overflow=hidden;rotatable=0;points=[[0,0.5],[1,0.5]];portConstraint=eastwest;whiteSpace=wrap;html=1;labelBackgroundColor=none;fontColor=#1A1A1A;" parent="VIdfA7fjar5SBpBOEZts-0" vertex="1">
          <mxGeometry y="1360" width="303" height="26" as="geometry" />
        </mxCell>
        <mxCell id="hoG8hrJg9u2dqEjmSY5--120" value="+ GetNumberOfHouses() : int" style="text;strokeColor=none;fillColor=none;align=left;verticalAlign=top;spacingLeft=4;spacingRight=4;overflow=hidden;rotatable=0;points=[[0,0.5],[1,0.5]];portConstraint=eastwest;whiteSpace=wrap;html=1;labelBackgroundColor=none;fontColor=#1A1A1A;" parent="VIdfA7fjar5SBpBOEZts-0" vertex="1">
          <mxGeometry y="1386" width="303" height="26" as="geometry" />
        </mxCell>
        <mxCell id="hoG8hrJg9u2dqEjmSY5--121" value="+ GenerateCardChance() : void" style="text;strokeColor=none;fillColor=none;align=left;verticalAlign=top;spacingLeft=4;spacingRight=4;overflow=hidden;rotatable=0;points=[[0,0.5],[1,0.5]];portConstraint=eastwest;whiteSpace=wrap;html=1;labelBackgroundColor=none;fontColor=#1A1A1A;" parent="VIdfA7fjar5SBpBOEZts-0" vertex="1">
          <mxGeometry y="1412" width="303" height="26" as="geometry" />
        </mxCell>
        <mxCell id="hoG8hrJg9u2dqEjmSY5--122" value="+ GenerateCardCommunityChest() : void" style="text;strokeColor=none;fillColor=none;align=left;verticalAlign=top;spacingLeft=4;spacingRight=4;overflow=hidden;rotatable=0;points=[[0,0.5],[1,0.5]];portConstraint=eastwest;whiteSpace=wrap;html=1;labelBackgroundColor=none;fontColor=#1A1A1A;" parent="VIdfA7fjar5SBpBOEZts-0" vertex="1">
          <mxGeometry y="1438" width="303" height="26" as="geometry" />
        </mxCell>
        <mxCell id="VIdfA7fjar5SBpBOEZts-33" value="Card" style="swimlane;fontStyle=1;align=center;verticalAlign=top;childLayout=stackLayout;horizontal=1;startSize=26;horizontalStack=0;resizeParent=1;resizeParentMax=0;resizeLast=0;collapsible=1;marginBottom=0;whiteSpace=wrap;html=1;strokeColor=#909090;fontColor=#1A1A1A;fillColor=#F5AB50;labelBackgroundColor=none;" parent="WIyWlLk6GJQsqaUBKTNV-1" vertex="1">
          <mxGeometry x="-338" y="500" width="387" height="295" as="geometry" />
        </mxCell>
        <mxCell id="VIdfA7fjar5SBpBOEZts-34" value="- _cardName : string" style="text;strokeColor=none;fillColor=none;align=left;verticalAlign=top;spacingLeft=4;spacingRight=4;overflow=hidden;rotatable=0;points=[[0,0.5],[1,0.5]];portConstraint=eastwest;whiteSpace=wrap;html=1;fontColor=#1A1A1A;labelBackgroundColor=none;" parent="VIdfA7fjar5SBpBOEZts-33" vertex="1">
          <mxGeometry y="26" width="387" height="26" as="geometry" />
        </mxCell>
        <mxCell id="hoG8hrJg9u2dqEjmSY5--123" value="- _cardDesc : string" style="text;strokeColor=none;fillColor=none;align=left;verticalAlign=top;spacingLeft=4;spacingRight=4;overflow=hidden;rotatable=0;points=[[0,0.5],[1,0.5]];portConstraint=eastwest;whiteSpace=wrap;html=1;fontColor=#1A1A1A;labelBackgroundColor=none;" parent="VIdfA7fjar5SBpBOEZts-33" vertex="1">
          <mxGeometry y="52" width="387" height="26" as="geometry" />
        </mxCell>
        <mxCell id="hoG8hrJg9u2dqEjmSY5--129" value="- _cardType : CardType" style="text;strokeColor=none;fillColor=none;align=left;verticalAlign=top;spacingLeft=4;spacingRight=4;overflow=hidden;rotatable=0;points=[[0,0.5],[1,0.5]];portConstraint=eastwest;whiteSpace=wrap;html=1;fontColor=#1A1A1A;labelBackgroundColor=none;" parent="VIdfA7fjar5SBpBOEZts-33" vertex="1">
          <mxGeometry y="78" width="387" height="26" as="geometry" />
        </mxCell>
        <mxCell id="hoG8hrJg9u2dqEjmSY5--131" value="- _actionCard : ActionCardDelegate" style="text;strokeColor=none;fillColor=none;align=left;verticalAlign=top;spacingLeft=4;spacingRight=4;overflow=hidden;rotatable=0;points=[[0,0.5],[1,0.5]];portConstraint=eastwest;whiteSpace=wrap;html=1;fontColor=#1A1A1A;labelBackgroundColor=none;" parent="VIdfA7fjar5SBpBOEZts-33" vertex="1">
          <mxGeometry y="104" width="387" height="26" as="geometry" />
        </mxCell>
        <mxCell id="VIdfA7fjar5SBpBOEZts-35" value="" style="line;strokeWidth=1;fillColor=none;align=left;verticalAlign=middle;spacingTop=-1;spacingLeft=3;spacingRight=3;rotatable=0;labelPosition=right;points=[];portConstraint=eastwest;strokeColor=#909090;fontColor=#1A1A1A;labelBackgroundColor=none;" parent="VIdfA7fjar5SBpBOEZts-33" vertex="1">
          <mxGeometry y="130" width="387" height="8" as="geometry" />
        </mxCell>
        <mxCell id="VIdfA7fjar5SBpBOEZts-36" value="&lt;i&gt;&amp;lt;&amp;lt;constructor&amp;gt;&amp;gt;&lt;/i&gt; + Card(string cardName, string cardDesc, CardType)" style="text;strokeColor=none;fillColor=none;align=left;verticalAlign=top;spacingLeft=4;spacingRight=4;overflow=hidden;rotatable=0;points=[[0,0.5],[1,0.5]];portConstraint=eastwest;whiteSpace=wrap;html=1;fontColor=#1A1A1A;labelBackgroundColor=none;" parent="VIdfA7fjar5SBpBOEZts-33" vertex="1">
          <mxGeometry y="138" width="387" height="27" as="geometry" />
        </mxCell>
        <mxCell id="hoG8hrJg9u2dqEjmSY5--124" value="&lt;i style=&quot;border-color: var(--border-color);&quot;&gt;&amp;lt;&amp;lt;property&amp;gt;&amp;gt;&amp;nbsp;&lt;/i&gt;+ CardName : string { get; set; }" style="text;strokeColor=none;fillColor=none;align=left;verticalAlign=top;spacingLeft=4;spacingRight=4;overflow=hidden;rotatable=0;points=[[0,0.5],[1,0.5]];portConstraint=eastwest;whiteSpace=wrap;html=1;fontColor=#1A1A1A;labelBackgroundColor=none;" parent="VIdfA7fjar5SBpBOEZts-33" vertex="1">
          <mxGeometry y="165" width="387" height="26" as="geometry" />
        </mxCell>
        <mxCell id="hoG8hrJg9u2dqEjmSY5--126" value="&lt;i style=&quot;border-color: var(--border-color);&quot;&gt;&amp;lt;&amp;lt;property&amp;gt;&amp;gt;&amp;nbsp;&lt;/i&gt;+ CardDescription : string { get; set; }" style="text;strokeColor=none;fillColor=none;align=left;verticalAlign=top;spacingLeft=4;spacingRight=4;overflow=hidden;rotatable=0;points=[[0,0.5],[1,0.5]];portConstraint=eastwest;whiteSpace=wrap;html=1;fontColor=#1A1A1A;labelBackgroundColor=none;" parent="VIdfA7fjar5SBpBOEZts-33" vertex="1">
          <mxGeometry y="191" width="387" height="26" as="geometry" />
        </mxCell>
        <mxCell id="hoG8hrJg9u2dqEjmSY5--133" value="&lt;i style=&quot;border-color: var(--border-color);&quot;&gt;&amp;lt;&amp;lt;property&amp;gt;&amp;gt;&amp;nbsp;&lt;/i&gt;+ CardType :&amp;nbsp; CardType { get; set; }" style="text;strokeColor=none;fillColor=none;align=left;verticalAlign=top;spacingLeft=4;spacingRight=4;overflow=hidden;rotatable=0;points=[[0,0.5],[1,0.5]];portConstraint=eastwest;whiteSpace=wrap;html=1;fontColor=#1A1A1A;labelBackgroundColor=none;" parent="VIdfA7fjar5SBpBOEZts-33" vertex="1">
          <mxGeometry y="217" width="387" height="26" as="geometry" />
        </mxCell>
        <mxCell id="hoG8hrJg9u2dqEjmSY5--135" value="&lt;i style=&quot;border-color: var(--border-color);&quot;&gt;&amp;lt;&amp;lt;property&amp;gt;&amp;gt;&amp;nbsp;&lt;/i&gt;+ ActionCardDelegate : ActionCardDelegate { get; set; }" style="text;strokeColor=none;fillColor=none;align=left;verticalAlign=top;spacingLeft=4;spacingRight=4;overflow=hidden;rotatable=0;points=[[0,0.5],[1,0.5]];portConstraint=eastwest;whiteSpace=wrap;html=1;fontColor=#1A1A1A;labelBackgroundColor=none;" parent="VIdfA7fjar5SBpBOEZts-33" vertex="1">
          <mxGeometry y="243" width="387" height="26" as="geometry" />
        </mxCell>
        <mxCell id="hoG8hrJg9u2dqEjmSY5--128" value="+ ExecuteActionCard(ActionCardDelegate, GameController)" style="text;strokeColor=none;fillColor=none;align=left;verticalAlign=top;spacingLeft=4;spacingRight=4;overflow=hidden;rotatable=0;points=[[0,0.5],[1,0.5]];portConstraint=eastwest;whiteSpace=wrap;html=1;fontColor=#1A1A1A;labelBackgroundColor=none;" parent="VIdfA7fjar5SBpBOEZts-33" vertex="1">
          <mxGeometry y="269" width="387" height="26" as="geometry" />
        </mxCell>
        <mxCell id="hoG8hrJg9u2dqEjmSY5--156" value="&lt;b&gt;ActionDelegate&lt;/b&gt;" style="swimlane;fontStyle=0;childLayout=stackLayout;horizontal=1;startSize=26;fillColor=#F5AB50;horizontalStack=0;resizeParent=1;resizeParentMax=0;resizeLast=0;collapsible=1;marginBottom=0;whiteSpace=wrap;html=1;strokeColor=#909090;labelBackgroundColor=none;fontColor=#1A1A1A;" parent="WIyWlLk6GJQsqaUBKTNV-1" vertex="1">
          <mxGeometry x="-275" y="853" width="285" height="69" as="geometry" />
        </mxCell>
        <mxCell id="hoG8hrJg9u2dqEjmSY5--158" value="&lt;i&gt;&amp;lt;&amp;lt;delegate&amp;gt;&amp;gt;&lt;/i&gt;&lt;br&gt;+ ActionCardDelegate(GameController) : boolean" style="text;strokeColor=none;fillColor=none;align=left;verticalAlign=top;spacingLeft=4;spacingRight=4;overflow=hidden;rotatable=0;points=[[0,0.5],[1,0.5]];portConstraint=eastwest;whiteSpace=wrap;html=1;labelBackgroundColor=none;fontColor=#1A1A1A;" parent="hoG8hrJg9u2dqEjmSY5--156" vertex="1">
          <mxGeometry y="26" width="285" height="43" as="geometry" />
        </mxCell>
        <mxCell id="hoG8hrJg9u2dqEjmSY5--160" value="&lt;p style=&quot;margin:0px;margin-top:4px;text-align:center;&quot;&gt;&lt;i&gt;&amp;lt;&amp;lt;enum&amp;gt;&amp;gt;&lt;/i&gt;&lt;br&gt;&lt;b&gt;GameState&lt;/b&gt;&lt;/p&gt;&lt;hr size=&quot;1&quot;&gt;&lt;p style=&quot;margin:0px;margin-left:4px;&quot;&gt;+ NotStarted&lt;/p&gt;&lt;p style=&quot;margin:0px;margin-left:4px;&quot;&gt;+ InProgress&lt;/p&gt;&lt;p style=&quot;margin:0px;margin-left:4px;&quot;&gt;+ Finished&lt;/p&gt;" style="verticalAlign=top;align=left;overflow=fill;fontSize=12;fontFamily=Helvetica;html=1;whiteSpace=wrap;strokeColor=#909090;fontColor=#1A1A1A;fillColor=#F5AB50;labelBackgroundColor=none;" parent="WIyWlLk6GJQsqaUBKTNV-1" vertex="1">
          <mxGeometry x="601" y="-976" width="116" height="105" as="geometry" />
        </mxCell>
        <mxCell id="hoG8hrJg9u2dqEjmSY5--161" value="&lt;p style=&quot;margin:0px;margin-top:4px;text-align:center;&quot;&gt;&lt;i&gt;&amp;lt;&amp;lt;enum&amp;gt;&amp;gt;&lt;/i&gt;&lt;br&gt;&lt;b&gt;CardType&lt;/b&gt;&lt;/p&gt;&lt;hr size=&quot;1&quot;&gt;&lt;p style=&quot;margin:0px;margin-left:4px;&quot;&gt;+ Chance&lt;/p&gt;&lt;p style=&quot;margin:0px;margin-left:4px;&quot;&gt;+ CommunityChest&lt;/p&gt;" style="verticalAlign=top;align=left;overflow=fill;fontSize=12;fontFamily=Helvetica;html=1;whiteSpace=wrap;strokeColor=#909090;fontColor=#1A1A1A;fillColor=#F5AB50;labelBackgroundColor=none;" parent="WIyWlLk6GJQsqaUBKTNV-1" vertex="1">
          <mxGeometry x="-528" y="552" width="120" height="80" as="geometry" />
        </mxCell>
        <mxCell id="hoG8hrJg9u2dqEjmSY5--162" value="&lt;p style=&quot;margin:0px;margin-top:4px;text-align:center;&quot;&gt;&lt;i&gt;&amp;lt;&amp;lt;enum&amp;gt;&amp;gt;&lt;/i&gt;&lt;br&gt;&lt;b&gt;TaxUtilityState&lt;/b&gt;&lt;/p&gt;&lt;hr size=&quot;1&quot;&gt;&lt;p style=&quot;margin:0px;margin-left:4px;&quot;&gt;+ Success&lt;/p&gt;&lt;p style=&quot;margin:0px;margin-left:4px;&quot;&gt;+ NotEnoughMoney&lt;/p&gt;" style="verticalAlign=top;align=left;overflow=fill;fontSize=12;fontFamily=Helvetica;html=1;whiteSpace=wrap;strokeColor=#909090;fontColor=#1A1A1A;fillColor=#F5AB50;labelBackgroundColor=none;" parent="WIyWlLk6GJQsqaUBKTNV-1" vertex="1">
          <mxGeometry x="601" y="734" width="131" height="92" as="geometry" />
        </mxCell>
        <mxCell id="hoG8hrJg9u2dqEjmSY5--163" value="&lt;p style=&quot;margin:0px;margin-top:4px;text-align:center;&quot;&gt;&lt;i&gt;&amp;lt;&amp;lt;enum&amp;gt;&amp;gt;&lt;/i&gt;&lt;br&gt;&lt;b&gt;PropState&lt;/b&gt;&lt;/p&gt;&lt;hr size=&quot;1&quot;&gt;&lt;p style=&quot;margin:0px;margin-left:4px;&quot;&gt;+ Success&lt;/p&gt;&lt;p style=&quot;margin:0px;margin-left:4px;&quot;&gt;+ AlreadyOwned&lt;/p&gt;&lt;p style=&quot;margin:0px;margin-left:4px;&quot;&gt;+ NotEnoughMoney&lt;/p&gt;&lt;p style=&quot;margin:0px;margin-left:4px;&quot;&gt;+ NotProperty&lt;/p&gt;" style="verticalAlign=top;align=left;overflow=fill;fontSize=12;fontFamily=Helvetica;html=1;whiteSpace=wrap;strokeColor=#909090;fontColor=#1A1A1A;fillColor=#F5AB50;labelBackgroundColor=none;" parent="WIyWlLk6GJQsqaUBKTNV-1" vertex="1">
          <mxGeometry x="-105" y="-31" width="131" height="116" as="geometry" />
        </mxCell>
        <mxCell id="hoG8hrJg9u2dqEjmSY5--164" value="&lt;p style=&quot;margin:0px;margin-top:4px;text-align:center;&quot;&gt;&lt;i&gt;&amp;lt;&amp;lt;enum&amp;gt;&amp;gt;&lt;/i&gt;&lt;br&gt;&lt;b&gt;PropertySituation&lt;/b&gt;&lt;/p&gt;&lt;hr size=&quot;1&quot;&gt;&lt;p style=&quot;margin:0px;margin-left:4px;&quot;&gt;+ Unowned&lt;/p&gt;&lt;p style=&quot;margin:0px;margin-left:4px;&quot;&gt;+ Owned&lt;/p&gt;" style="verticalAlign=top;align=left;overflow=fill;fontSize=12;fontFamily=Helvetica;html=1;whiteSpace=wrap;strokeColor=#909090;fontColor=#1A1A1A;fillColor=#F5AB50;labelBackgroundColor=none;" parent="WIyWlLk6GJQsqaUBKTNV-1" vertex="1">
          <mxGeometry x="2223" y="80" width="131" height="92" as="geometry" />
        </mxCell>
        <mxCell id="hoG8hrJg9u2dqEjmSY5--165" value="&lt;p style=&quot;margin:0px;margin-top:4px;text-align:center;&quot;&gt;&lt;i&gt;&amp;lt;&amp;lt;enum&amp;gt;&amp;gt;&lt;/i&gt;&lt;br&gt;&lt;b&gt;PropertyType&lt;/b&gt;&lt;/p&gt;&lt;hr size=&quot;1&quot;&gt;&lt;p style=&quot;margin:0px;margin-left:4px;&quot;&gt;+ Country&lt;/p&gt;&lt;p style=&quot;margin:0px;margin-left:4px;&quot;&gt;+ Station&lt;/p&gt;&lt;p style=&quot;margin:0px;margin-left:4px;&quot;&gt;+ Harbour&lt;/p&gt;&lt;p style=&quot;margin:0px;margin-left:4px;&quot;&gt;+ Airport&lt;/p&gt;" style="verticalAlign=top;align=left;overflow=fill;fontSize=12;fontFamily=Helvetica;html=1;whiteSpace=wrap;strokeColor=#909090;fontColor=#1A1A1A;fillColor=#F5AB50;labelBackgroundColor=none;" parent="WIyWlLk6GJQsqaUBKTNV-1" vertex="1">
          <mxGeometry x="2215" y="-135" width="131" height="113" as="geometry" />
        </mxCell>
        <mxCell id="hoG8hrJg9u2dqEjmSY5--166" value="&lt;p style=&quot;margin:0px;margin-top:4px;text-align:center;&quot;&gt;&lt;i&gt;&amp;lt;&amp;lt;enum&amp;gt;&amp;gt;&lt;/i&gt;&lt;br&gt;&lt;b&gt;TileType&lt;/b&gt;&lt;/p&gt;&lt;hr size=&quot;1&quot;&gt;&lt;p style=&quot;margin:0px;margin-left:4px;&quot;&gt;+ Go&lt;/p&gt;&lt;p style=&quot;margin:0px;margin-left:4px;&quot;&gt;+ VisitingJail&lt;/p&gt;&lt;p style=&quot;margin:0px;margin-left:4px;&quot;&gt;+ GoToJail&lt;/p&gt;&lt;p style=&quot;margin:0px;margin-left:4px;&quot;&gt;+ Property&lt;/p&gt;&lt;p style=&quot;margin:0px;margin-left:4px;&quot;&gt;+ Utility&lt;/p&gt;&lt;p style=&quot;margin:0px;margin-left:4px;&quot;&gt;+ Tax&lt;/p&gt;&lt;p style=&quot;margin:0px;margin-left:4px;&quot;&gt;+ Chance&lt;/p&gt;&lt;p style=&quot;margin:0px;margin-left:4px;&quot;&gt;+ CommunityChest&lt;/p&gt;" style="verticalAlign=top;align=left;overflow=fill;fontSize=12;fontFamily=Helvetica;html=1;whiteSpace=wrap;strokeColor=#909090;fontColor=#1A1A1A;fillColor=#F5AB50;labelBackgroundColor=none;" parent="WIyWlLk6GJQsqaUBKTNV-1" vertex="1">
          <mxGeometry x="1454" y="-490.5" width="131" height="174" as="geometry" />
        </mxCell>
        <mxCell id="hoG8hrJg9u2dqEjmSY5--173" value="CardSkill" style="swimlane;fontStyle=1;align=center;verticalAlign=top;childLayout=stackLayout;horizontal=1;startSize=26;horizontalStack=0;resizeParent=1;resizeParentMax=0;resizeLast=0;collapsible=1;marginBottom=0;whiteSpace=wrap;html=1;strokeColor=#909090;fontColor=#1A1A1A;fillColor=#F5AB50;labelBackgroundColor=none;" parent="WIyWlLk6GJQsqaUBKTNV-1" vertex="1">
          <mxGeometry x="-290" y="339" width="301" height="91" as="geometry" />
        </mxCell>
        <mxCell id="hoG8hrJg9u2dqEjmSY5--178" value="" style="line;strokeWidth=1;fillColor=none;align=left;verticalAlign=middle;spacingTop=-1;spacingLeft=3;spacingRight=3;rotatable=0;labelPosition=right;points=[];portConstraint=eastwest;strokeColor=#909090;fontColor=#1A1A1A;labelBackgroundColor=none;" parent="hoG8hrJg9u2dqEjmSY5--173" vertex="1">
          <mxGeometry y="26" width="301" height="8" as="geometry" />
        </mxCell>
        <mxCell id="hoG8hrJg9u2dqEjmSY5--179" value="+ staticCommunityPayTax(GameController) : boolean" style="text;strokeColor=none;fillColor=none;align=left;verticalAlign=top;spacingLeft=4;spacingRight=4;overflow=hidden;rotatable=0;points=[[0,0.5],[1,0.5]];portConstraint=eastwest;whiteSpace=wrap;html=1;fontColor=#1A1A1A;labelBackgroundColor=none;" parent="hoG8hrJg9u2dqEjmSY5--173" vertex="1">
          <mxGeometry y="34" width="301" height="28" as="geometry" />
        </mxCell>
        <mxCell id="hoG8hrJg9u2dqEjmSY5--180" value="+ staticChanceBirthday(GameController) : boolean" style="text;strokeColor=none;fillColor=none;align=left;verticalAlign=top;spacingLeft=4;spacingRight=4;overflow=hidden;rotatable=0;points=[[0,0.5],[1,0.5]];portConstraint=eastwest;whiteSpace=wrap;html=1;fontColor=#1A1A1A;labelBackgroundColor=none;" parent="hoG8hrJg9u2dqEjmSY5--173" vertex="1">
          <mxGeometry y="62" width="301" height="29" as="geometry" />
        </mxCell>
        <mxCell id="hoG8hrJg9u2dqEjmSY5--181" value="&lt;p style=&quot;margin:0px;margin-top:4px;text-align:center;&quot;&gt;&lt;i&gt;&amp;lt;&amp;lt;interface&amp;gt;&amp;gt;&lt;/i&gt;&lt;br&gt;&lt;b&gt;IDice&lt;/b&gt;&lt;/p&gt;&lt;hr size=&quot;1&quot;&gt;&lt;p style=&quot;margin:0px;margin-left:4px;&quot;&gt;+ Roll() : int&lt;/p&gt;" style="verticalAlign=top;align=left;overflow=fill;fontSize=12;fontFamily=Helvetica;html=1;whiteSpace=wrap;strokeColor=#909090;fontColor=#1A1A1A;fillColor=#F5AB50;labelBackgroundColor=none;" parent="WIyWlLk6GJQsqaUBKTNV-1" vertex="1">
          <mxGeometry x="-290" y="-449.5" width="120" height="80" as="geometry" />
        </mxCell>
        <mxCell id="hoG8hrJg9u2dqEjmSY5--182" value="&lt;p style=&quot;margin:0px;margin-top:4px;text-align:center;&quot;&gt;&lt;i&gt;&amp;lt;&amp;lt;interface&amp;gt;&amp;gt;&lt;/i&gt;&lt;br&gt;&lt;b&gt;IPlayer&lt;/b&gt;&lt;/p&gt;&lt;hr size=&quot;1&quot;&gt;&lt;p style=&quot;margin:0px;margin-left:4px;&quot;&gt;+ GetName() : string&lt;/p&gt;&lt;p style=&quot;margin:0px;margin-left:4px;&quot;&gt;+ SetName(string): boolean&lt;/p&gt;&lt;p style=&quot;margin:0px;margin-left:4px;&quot;&gt;+ GetId() : int&lt;/p&gt;" style="verticalAlign=top;align=left;overflow=fill;fontSize=12;fontFamily=Helvetica;html=1;whiteSpace=wrap;strokeColor=#909090;fontColor=#1A1A1A;fillColor=#F5AB50;labelBackgroundColor=none;" parent="WIyWlLk6GJQsqaUBKTNV-1" vertex="1">
          <mxGeometry x="-337.5" y="-706.5" width="165" height="100" as="geometry" />
        </mxCell>
        <mxCell id="hoG8hrJg9u2dqEjmSY5--183" value="Dice : IDice" style="swimlane;fontStyle=1;align=center;verticalAlign=top;childLayout=stackLayout;horizontal=1;startSize=26;horizontalStack=0;resizeParent=1;resizeParentMax=0;resizeLast=0;collapsible=1;marginBottom=0;whiteSpace=wrap;html=1;strokeColor=#909090;fontColor=#1A1A1A;fillColor=#F5AB50;labelBackgroundColor=none;" parent="WIyWlLk6GJQsqaUBKTNV-1" vertex="1">
          <mxGeometry x="-108" y="-482" width="231" height="111" as="geometry" />
        </mxCell>
        <mxCell id="hoG8hrJg9u2dqEjmSY5--184" value="- _numOfSide : int" style="text;strokeColor=none;fillColor=none;align=left;verticalAlign=top;spacingLeft=4;spacingRight=4;overflow=hidden;rotatable=0;points=[[0,0.5],[1,0.5]];portConstraint=eastwest;whiteSpace=wrap;html=1;fontColor=#1A1A1A;labelBackgroundColor=none;" parent="hoG8hrJg9u2dqEjmSY5--183" vertex="1">
          <mxGeometry y="26" width="231" height="26" as="geometry" />
        </mxCell>
        <mxCell id="hoG8hrJg9u2dqEjmSY5--188" value="" style="line;strokeWidth=1;fillColor=none;align=left;verticalAlign=middle;spacingTop=-1;spacingLeft=3;spacingRight=3;rotatable=0;labelPosition=right;points=[];portConstraint=eastwest;strokeColor=#909090;fontColor=#1A1A1A;labelBackgroundColor=none;" parent="hoG8hrJg9u2dqEjmSY5--183" vertex="1">
          <mxGeometry y="52" width="231" height="8" as="geometry" />
        </mxCell>
        <mxCell id="hoG8hrJg9u2dqEjmSY5--189" value="&lt;i&gt;&amp;lt;&amp;lt;constructor&amp;gt;&amp;gt;&lt;/i&gt; + Dice(int numOfSide)" style="text;strokeColor=none;fillColor=none;align=left;verticalAlign=top;spacingLeft=4;spacingRight=4;overflow=hidden;rotatable=0;points=[[0,0.5],[1,0.5]];portConstraint=eastwest;whiteSpace=wrap;html=1;fontColor=#1A1A1A;labelBackgroundColor=none;" parent="hoG8hrJg9u2dqEjmSY5--183" vertex="1">
          <mxGeometry y="60" width="231" height="25" as="geometry" />
        </mxCell>
        <mxCell id="hoG8hrJg9u2dqEjmSY5--190" value="+ Roll() : int" style="text;strokeColor=none;fillColor=none;align=left;verticalAlign=top;spacingLeft=4;spacingRight=4;overflow=hidden;rotatable=0;points=[[0,0.5],[1,0.5]];portConstraint=eastwest;whiteSpace=wrap;html=1;fontColor=#1A1A1A;labelBackgroundColor=none;" parent="hoG8hrJg9u2dqEjmSY5--183" vertex="1">
          <mxGeometry y="85" width="231" height="26" as="geometry" />
        </mxCell>
        <mxCell id="hoG8hrJg9u2dqEjmSY5--191" value="Player : IPlayer" style="swimlane;fontStyle=1;align=center;verticalAlign=top;childLayout=stackLayout;horizontal=1;startSize=26;horizontalStack=0;resizeParent=1;resizeParentMax=0;resizeLast=0;collapsible=1;marginBottom=0;whiteSpace=wrap;html=1;strokeColor=#909090;fontColor=#1A1A1A;fillColor=#F5AB50;labelBackgroundColor=none;" parent="WIyWlLk6GJQsqaUBKTNV-1" vertex="1">
          <mxGeometry x="-110.5" y="-752" width="231" height="184" as="geometry" />
        </mxCell>
        <mxCell id="hoG8hrJg9u2dqEjmSY5--192" value="- _name : string" style="text;strokeColor=none;fillColor=none;align=left;verticalAlign=top;spacingLeft=4;spacingRight=4;overflow=hidden;rotatable=0;points=[[0,0.5],[1,0.5]];portConstraint=eastwest;whiteSpace=wrap;html=1;fontColor=#1A1A1A;labelBackgroundColor=none;" parent="hoG8hrJg9u2dqEjmSY5--191" vertex="1">
          <mxGeometry y="26" width="231" height="26" as="geometry" />
        </mxCell>
        <mxCell id="hoG8hrJg9u2dqEjmSY5--127" value="- _id : int" style="text;strokeColor=none;fillColor=none;align=left;verticalAlign=top;spacingLeft=4;spacingRight=4;overflow=hidden;rotatable=0;points=[[0,0.5],[1,0.5]];portConstraint=eastwest;whiteSpace=wrap;html=1;fontColor=#1A1A1A;labelBackgroundColor=none;" parent="hoG8hrJg9u2dqEjmSY5--191" vertex="1">
          <mxGeometry y="52" width="231" height="23" as="geometry" />
        </mxCell>
        <mxCell id="hoG8hrJg9u2dqEjmSY5--193" value="" style="line;strokeWidth=1;fillColor=none;align=left;verticalAlign=middle;spacingTop=-1;spacingLeft=3;spacingRight=3;rotatable=0;labelPosition=right;points=[];portConstraint=eastwest;strokeColor=#909090;fontColor=#1A1A1A;labelBackgroundColor=none;" parent="hoG8hrJg9u2dqEjmSY5--191" vertex="1">
          <mxGeometry y="75" width="231" height="8" as="geometry" />
        </mxCell>
        <mxCell id="hoG8hrJg9u2dqEjmSY5--194" value="&lt;i&gt;&amp;lt;&amp;lt;constructor&amp;gt;&amp;gt;&lt;/i&gt; + Player(string name)" style="text;strokeColor=none;fillColor=none;align=left;verticalAlign=top;spacingLeft=4;spacingRight=4;overflow=hidden;rotatable=0;points=[[0,0.5],[1,0.5]];portConstraint=eastwest;whiteSpace=wrap;html=1;fontColor=#1A1A1A;labelBackgroundColor=none;" parent="hoG8hrJg9u2dqEjmSY5--191" vertex="1">
          <mxGeometry y="83" width="231" height="25" as="geometry" />
        </mxCell>
        <mxCell id="hoG8hrJg9u2dqEjmSY5--195" value="+ GetName() : string" style="text;strokeColor=none;fillColor=none;align=left;verticalAlign=top;spacingLeft=4;spacingRight=4;overflow=hidden;rotatable=0;points=[[0,0.5],[1,0.5]];portConstraint=eastwest;whiteSpace=wrap;html=1;fontColor=#1A1A1A;labelBackgroundColor=none;" parent="hoG8hrJg9u2dqEjmSY5--191" vertex="1">
          <mxGeometry y="108" width="231" height="25" as="geometry" />
        </mxCell>
        <mxCell id="hoG8hrJg9u2dqEjmSY5--130" value="+ SetName(string name) : boolean" style="text;strokeColor=none;fillColor=none;align=left;verticalAlign=top;spacingLeft=4;spacingRight=4;overflow=hidden;rotatable=0;points=[[0,0.5],[1,0.5]];portConstraint=eastwest;whiteSpace=wrap;html=1;fontColor=#1A1A1A;labelBackgroundColor=none;" parent="hoG8hrJg9u2dqEjmSY5--191" vertex="1">
          <mxGeometry y="133" width="231" height="25" as="geometry" />
        </mxCell>
        <mxCell id="hoG8hrJg9u2dqEjmSY5--125" value="+ GetId() : int" style="text;strokeColor=none;fillColor=none;align=left;verticalAlign=top;spacingLeft=4;spacingRight=4;overflow=hidden;rotatable=0;points=[[0,0.5],[1,0.5]];portConstraint=eastwest;whiteSpace=wrap;html=1;fontColor=#1A1A1A;labelBackgroundColor=none;" parent="hoG8hrJg9u2dqEjmSY5--191" vertex="1">
          <mxGeometry y="158" width="231" height="26" as="geometry" />
        </mxCell>
        <mxCell id="hoG8hrJg9u2dqEjmSY5--196" value="Menu" style="swimlane;fontStyle=1;align=center;verticalAlign=top;childLayout=stackLayout;horizontal=1;startSize=26;horizontalStack=0;resizeParent=1;resizeParentMax=0;resizeLast=0;collapsible=1;marginBottom=0;whiteSpace=wrap;html=1;strokeColor=#909090;fontColor=#1A1A1A;fillColor=#F5AB50;labelBackgroundColor=none;" parent="WIyWlLk6GJQsqaUBKTNV-1" vertex="1">
          <mxGeometry x="247" y="-1019" width="273" height="138" as="geometry" />
        </mxCell>
        <mxCell id="hoG8hrJg9u2dqEjmSY5--197" value="- _nameMenu : string" style="text;strokeColor=none;fillColor=none;align=left;verticalAlign=top;spacingLeft=4;spacingRight=4;overflow=hidden;rotatable=0;points=[[0,0.5],[1,0.5]];portConstraint=eastwest;whiteSpace=wrap;html=1;fontColor=#1A1A1A;labelBackgroundColor=none;" parent="hoG8hrJg9u2dqEjmSY5--196" vertex="1">
          <mxGeometry y="26" width="273" height="26" as="geometry" />
        </mxCell>
        <mxCell id="hoG8hrJg9u2dqEjmSY5--198" value="- _action : MenuAction" style="text;strokeColor=none;fillColor=none;align=left;verticalAlign=top;spacingLeft=4;spacingRight=4;overflow=hidden;rotatable=0;points=[[0,0.5],[1,0.5]];portConstraint=eastwest;whiteSpace=wrap;html=1;fontColor=#1A1A1A;labelBackgroundColor=none;" parent="hoG8hrJg9u2dqEjmSY5--196" vertex="1">
          <mxGeometry y="52" width="273" height="26" as="geometry" />
        </mxCell>
        <mxCell id="hoG8hrJg9u2dqEjmSY5--199" value="" style="line;strokeWidth=1;fillColor=none;align=left;verticalAlign=middle;spacingTop=-1;spacingLeft=3;spacingRight=3;rotatable=0;labelPosition=right;points=[];portConstraint=eastwest;strokeColor=#909090;fontColor=#1A1A1A;labelBackgroundColor=none;" parent="hoG8hrJg9u2dqEjmSY5--196" vertex="1">
          <mxGeometry y="78" width="273" height="8" as="geometry" />
        </mxCell>
        <mxCell id="hoG8hrJg9u2dqEjmSY5--201" value="&lt;i style=&quot;border-color: var(--border-color);&quot;&gt;&amp;lt;&amp;lt;property&amp;gt;&amp;gt;&amp;nbsp;&lt;/i&gt;+ NameMenu : string { get; set; }" style="text;strokeColor=none;fillColor=none;align=left;verticalAlign=top;spacingLeft=4;spacingRight=4;overflow=hidden;rotatable=0;points=[[0,0.5],[1,0.5]];portConstraint=eastwest;whiteSpace=wrap;html=1;fontColor=#1A1A1A;labelBackgroundColor=none;" parent="hoG8hrJg9u2dqEjmSY5--196" vertex="1">
          <mxGeometry y="86" width="273" height="26" as="geometry" />
        </mxCell>
        <mxCell id="hoG8hrJg9u2dqEjmSY5--202" value="&lt;i style=&quot;border-color: var(--border-color);&quot;&gt;&amp;lt;&amp;lt;property&amp;gt;&amp;gt;&amp;nbsp;&lt;/i&gt;+ Action : MenuAction { get; set; }" style="text;strokeColor=none;fillColor=none;align=left;verticalAlign=top;spacingLeft=4;spacingRight=4;overflow=hidden;rotatable=0;points=[[0,0.5],[1,0.5]];portConstraint=eastwest;whiteSpace=wrap;html=1;fontColor=#1A1A1A;labelBackgroundColor=none;" parent="hoG8hrJg9u2dqEjmSY5--196" vertex="1">
          <mxGeometry y="112" width="273" height="26" as="geometry" />
        </mxCell>
        <mxCell id="hoG8hrJg9u2dqEjmSY5--204" value="&lt;b&gt;ActionDelegate&lt;/b&gt;" style="swimlane;fontStyle=0;childLayout=stackLayout;horizontal=1;startSize=26;fillColor=#F5AB50;horizontalStack=0;resizeParent=1;resizeParentMax=0;resizeLast=0;collapsible=1;marginBottom=0;whiteSpace=wrap;html=1;strokeColor=#909090;labelBackgroundColor=none;fontColor=#1A1A1A;" parent="WIyWlLk6GJQsqaUBKTNV-1" vertex="1">
          <mxGeometry x="3" y="-1002" width="157" height="69" as="geometry" />
        </mxCell>
        <mxCell id="hoG8hrJg9u2dqEjmSY5--205" value="&lt;i&gt;&amp;lt;&amp;lt;delegate&amp;gt;&amp;gt;&lt;/i&gt;&lt;br&gt;+ MenuAction() : void" style="text;strokeColor=none;fillColor=none;align=left;verticalAlign=top;spacingLeft=4;spacingRight=4;overflow=hidden;rotatable=0;points=[[0,0.5],[1,0.5]];portConstraint=eastwest;whiteSpace=wrap;html=1;labelBackgroundColor=none;fontColor=#1A1A1A;" parent="hoG8hrJg9u2dqEjmSY5--204" vertex="1">
          <mxGeometry y="26" width="157" height="43" as="geometry" />
        </mxCell>
        <mxCell id="hoG8hrJg9u2dqEjmSY5--206" value="Board" style="swimlane;fontStyle=1;align=center;verticalAlign=top;childLayout=stackLayout;horizontal=1;startSize=26;horizontalStack=0;resizeParent=1;resizeParentMax=0;resizeLast=0;collapsible=1;marginBottom=0;whiteSpace=wrap;html=1;strokeColor=#909090;fontColor=#1A1A1A;fillColor=#F5AB50;labelBackgroundColor=none;" parent="WIyWlLk6GJQsqaUBKTNV-1" vertex="1">
          <mxGeometry x="1099" y="-657" width="282.5" height="243" as="geometry" />
        </mxCell>
        <mxCell id="hoG8hrJg9u2dqEjmSY5--207" value="- _tile : List&amp;lt;Tile&amp;gt;" style="text;strokeColor=none;fillColor=none;align=left;verticalAlign=top;spacingLeft=4;spacingRight=4;overflow=hidden;rotatable=0;points=[[0,0.5],[1,0.5]];portConstraint=eastwest;whiteSpace=wrap;html=1;fontColor=#1A1A1A;labelBackgroundColor=none;" parent="hoG8hrJg9u2dqEjmSY5--206" vertex="1">
          <mxGeometry y="26" width="282.5" height="26" as="geometry" />
        </mxCell>
        <mxCell id="hoG8hrJg9u2dqEjmSY5--211" value="" style="line;strokeWidth=1;fillColor=none;align=left;verticalAlign=middle;spacingTop=-1;spacingLeft=3;spacingRight=3;rotatable=0;labelPosition=right;points=[];portConstraint=eastwest;strokeColor=#909090;fontColor=#1A1A1A;labelBackgroundColor=none;" parent="hoG8hrJg9u2dqEjmSY5--206" vertex="1">
          <mxGeometry y="52" width="282.5" height="8" as="geometry" />
        </mxCell>
        <mxCell id="hoG8hrJg9u2dqEjmSY5--212" value="&lt;i&gt;&amp;lt;&amp;lt;constructor&amp;gt;&amp;gt;&lt;/i&gt; + Board()" style="text;strokeColor=none;fillColor=none;align=left;verticalAlign=top;spacingLeft=4;spacingRight=4;overflow=hidden;rotatable=0;points=[[0,0.5],[1,0.5]];portConstraint=eastwest;whiteSpace=wrap;html=1;fontColor=#1A1A1A;labelBackgroundColor=none;" parent="hoG8hrJg9u2dqEjmSY5--206" vertex="1">
          <mxGeometry y="60" width="282.5" height="27" as="geometry" />
        </mxCell>
        <mxCell id="hoG8hrJg9u2dqEjmSY5--213" value="&lt;i style=&quot;border-color: var(--border-color);&quot;&gt;&amp;lt;&amp;lt;property&amp;gt;&amp;gt;&amp;nbsp;&lt;/i&gt;+ Tile : List&amp;lt;Tile&amp;gt; { get; set; }" style="text;strokeColor=none;fillColor=none;align=left;verticalAlign=top;spacingLeft=4;spacingRight=4;overflow=hidden;rotatable=0;points=[[0,0.5],[1,0.5]];portConstraint=eastwest;whiteSpace=wrap;html=1;fontColor=#1A1A1A;labelBackgroundColor=none;" parent="hoG8hrJg9u2dqEjmSY5--206" vertex="1">
          <mxGeometry y="87" width="282.5" height="26" as="geometry" />
        </mxCell>
        <mxCell id="hoG8hrJg9u2dqEjmSY5--214" value="+ CreateBoard() : void" style="text;strokeColor=none;fillColor=none;align=left;verticalAlign=top;spacingLeft=4;spacingRight=4;overflow=hidden;rotatable=0;points=[[0,0.5],[1,0.5]];portConstraint=eastwest;whiteSpace=wrap;html=1;fontColor=#1A1A1A;labelBackgroundColor=none;" parent="hoG8hrJg9u2dqEjmSY5--206" vertex="1">
          <mxGeometry y="113" width="282.5" height="26" as="geometry" />
        </mxCell>
        <mxCell id="hoG8hrJg9u2dqEjmSY5--215" value="+ AddTile(Tile) : void" style="text;strokeColor=none;fillColor=none;align=left;verticalAlign=top;spacingLeft=4;spacingRight=4;overflow=hidden;rotatable=0;points=[[0,0.5],[1,0.5]];portConstraint=eastwest;whiteSpace=wrap;html=1;fontColor=#1A1A1A;labelBackgroundColor=none;" parent="hoG8hrJg9u2dqEjmSY5--206" vertex="1">
          <mxGeometry y="139" width="282.5" height="26" as="geometry" />
        </mxCell>
        <mxCell id="hoG8hrJg9u2dqEjmSY5--216" value="+ GetTile(int position) : Tile" style="text;strokeColor=none;fillColor=none;align=left;verticalAlign=top;spacingLeft=4;spacingRight=4;overflow=hidden;rotatable=0;points=[[0,0.5],[1,0.5]];portConstraint=eastwest;whiteSpace=wrap;html=1;fontColor=#1A1A1A;labelBackgroundColor=none;" parent="hoG8hrJg9u2dqEjmSY5--206" vertex="1">
          <mxGeometry y="165" width="282.5" height="26" as="geometry" />
        </mxCell>
        <mxCell id="hoG8hrJg9u2dqEjmSY5--217" value="+ GetTileAll() : int" style="text;strokeColor=none;fillColor=none;align=left;verticalAlign=top;spacingLeft=4;spacingRight=4;overflow=hidden;rotatable=0;points=[[0,0.5],[1,0.5]];portConstraint=eastwest;whiteSpace=wrap;html=1;fontColor=#1A1A1A;labelBackgroundColor=none;" parent="hoG8hrJg9u2dqEjmSY5--206" vertex="1">
          <mxGeometry y="191" width="282.5" height="26" as="geometry" />
        </mxCell>
        <mxCell id="hoG8hrJg9u2dqEjmSY5--132" value="~ GetTile(object position) : Tile" style="text;strokeColor=none;fillColor=none;align=left;verticalAlign=top;spacingLeft=4;spacingRight=4;overflow=hidden;rotatable=0;points=[[0,0.5],[1,0.5]];portConstraint=eastwest;whiteSpace=wrap;html=1;fontColor=#1A1A1A;labelBackgroundColor=none;" parent="hoG8hrJg9u2dqEjmSY5--206" vertex="1">
          <mxGeometry y="217" width="282.5" height="26" as="geometry" />
        </mxCell>
        <mxCell id="hoG8hrJg9u2dqEjmSY5--218" value="&lt;span style=&quot;font-weight: normal;&quot;&gt;&lt;i&gt;&amp;lt;&amp;lt;abstract class&amp;gt;&amp;gt;&lt;/i&gt;&lt;/span&gt;&lt;br&gt;Tile" style="swimlane;fontStyle=1;align=center;verticalAlign=top;childLayout=stackLayout;horizontal=1;startSize=40;horizontalStack=0;resizeParent=1;resizeParentMax=0;resizeLast=0;collapsible=1;marginBottom=0;whiteSpace=wrap;html=1;strokeColor=#909090;fontColor=#1A1A1A;fillColor=#F5AB50;labelBackgroundColor=none;" parent="WIyWlLk6GJQsqaUBKTNV-1" vertex="1">
          <mxGeometry x="1080" y="-314" width="293.5" height="379" as="geometry" />
        </mxCell>
        <mxCell id="hoG8hrJg9u2dqEjmSY5--219" value="- _position : int" style="text;strokeColor=none;fillColor=none;align=left;verticalAlign=top;spacingLeft=4;spacingRight=4;overflow=hidden;rotatable=0;points=[[0,0.5],[1,0.5]];portConstraint=eastwest;whiteSpace=wrap;html=1;fontColor=#1A1A1A;labelBackgroundColor=none;" parent="hoG8hrJg9u2dqEjmSY5--218" vertex="1">
          <mxGeometry y="40" width="293.5" height="26" as="geometry" />
        </mxCell>
        <mxCell id="hoG8hrJg9u2dqEjmSY5--146" value="- _tileName : string" style="text;strokeColor=none;fillColor=none;align=left;verticalAlign=top;spacingLeft=4;spacingRight=4;overflow=hidden;rotatable=0;points=[[0,0.5],[1,0.5]];portConstraint=eastwest;whiteSpace=wrap;html=1;fontColor=#1A1A1A;labelBackgroundColor=none;" parent="hoG8hrJg9u2dqEjmSY5--218" vertex="1">
          <mxGeometry y="66" width="293.5" height="26" as="geometry" />
        </mxCell>
        <mxCell id="hoG8hrJg9u2dqEjmSY5--145" value="- _tileDescription : string" style="text;strokeColor=none;fillColor=none;align=left;verticalAlign=top;spacingLeft=4;spacingRight=4;overflow=hidden;rotatable=0;points=[[0,0.5],[1,0.5]];portConstraint=eastwest;whiteSpace=wrap;html=1;fontColor=#1A1A1A;labelBackgroundColor=none;" parent="hoG8hrJg9u2dqEjmSY5--218" vertex="1">
          <mxGeometry y="92" width="293.5" height="26" as="geometry" />
        </mxCell>
        <mxCell id="hoG8hrJg9u2dqEjmSY5--141" value="- _tileType : TileType" style="text;strokeColor=none;fillColor=none;align=left;verticalAlign=top;spacingLeft=4;spacingRight=4;overflow=hidden;rotatable=0;points=[[0,0.5],[1,0.5]];portConstraint=eastwest;whiteSpace=wrap;html=1;fontColor=#1A1A1A;labelBackgroundColor=none;" parent="hoG8hrJg9u2dqEjmSY5--218" vertex="1">
          <mxGeometry y="118" width="293.5" height="26" as="geometry" />
        </mxCell>
        <mxCell id="hoG8hrJg9u2dqEjmSY5--220" value="" style="line;strokeWidth=1;fillColor=none;align=left;verticalAlign=middle;spacingTop=-1;spacingLeft=3;spacingRight=3;rotatable=0;labelPosition=right;points=[];portConstraint=eastwest;strokeColor=#909090;fontColor=#1A1A1A;labelBackgroundColor=none;" parent="hoG8hrJg9u2dqEjmSY5--218" vertex="1">
          <mxGeometry y="144" width="293.5" height="8" as="geometry" />
        </mxCell>
        <mxCell id="hoG8hrJg9u2dqEjmSY5--221" value="&lt;i&gt;&amp;lt;&amp;lt;constructor&amp;gt;&amp;gt;&lt;/i&gt; + Tile(int position, string tileName, string tileDescription, TileType tileType)" style="text;strokeColor=none;fillColor=none;align=left;verticalAlign=top;spacingLeft=4;spacingRight=4;overflow=hidden;rotatable=0;points=[[0,0.5],[1,0.5]];portConstraint=eastwest;whiteSpace=wrap;html=1;fontColor=#1A1A1A;labelBackgroundColor=none;" parent="hoG8hrJg9u2dqEjmSY5--218" vertex="1">
          <mxGeometry y="152" width="293.5" height="42" as="geometry" />
        </mxCell>
        <mxCell id="hoG8hrJg9u2dqEjmSY5--228" value="&lt;i&gt;&amp;lt;&amp;lt;constructor&amp;gt;&amp;gt;&lt;/i&gt; + Tile(int position, string tileName)" style="text;strokeColor=none;fillColor=none;align=left;verticalAlign=top;spacingLeft=4;spacingRight=4;overflow=hidden;rotatable=0;points=[[0,0.5],[1,0.5]];portConstraint=eastwest;whiteSpace=wrap;html=1;fontColor=#1A1A1A;labelBackgroundColor=none;" parent="hoG8hrJg9u2dqEjmSY5--218" vertex="1">
          <mxGeometry y="194" width="293.5" height="27" as="geometry" />
        </mxCell>
        <mxCell id="hoG8hrJg9u2dqEjmSY5--229" value="&lt;i&gt;&amp;lt;&amp;lt;constructor&amp;gt;&amp;gt;&lt;/i&gt; + Tile(int position)" style="text;strokeColor=none;fillColor=none;align=left;verticalAlign=top;spacingLeft=4;spacingRight=4;overflow=hidden;rotatable=0;points=[[0,0.5],[1,0.5]];portConstraint=eastwest;whiteSpace=wrap;html=1;fontColor=#1A1A1A;labelBackgroundColor=none;" parent="hoG8hrJg9u2dqEjmSY5--218" vertex="1">
          <mxGeometry y="221" width="293.5" height="27" as="geometry" />
        </mxCell>
        <mxCell id="hoG8hrJg9u2dqEjmSY5--230" value="&lt;i&gt;&amp;lt;&amp;lt;constructor&amp;gt;&amp;gt;&lt;/i&gt; + Tile()" style="text;strokeColor=none;fillColor=none;align=left;verticalAlign=top;spacingLeft=4;spacingRight=4;overflow=hidden;rotatable=0;points=[[0,0.5],[1,0.5]];portConstraint=eastwest;whiteSpace=wrap;html=1;fontColor=#1A1A1A;labelBackgroundColor=none;" parent="hoG8hrJg9u2dqEjmSY5--218" vertex="1">
          <mxGeometry y="248" width="293.5" height="27" as="geometry" />
        </mxCell>
        <mxCell id="hoG8hrJg9u2dqEjmSY5--222" value="&lt;i style=&quot;border-color: var(--border-color);&quot;&gt;&amp;lt;&amp;lt;property&amp;gt;&amp;gt;&amp;nbsp;&lt;/i&gt;+ Position : int { get; set; }" style="text;strokeColor=none;fillColor=none;align=left;verticalAlign=top;spacingLeft=4;spacingRight=4;overflow=hidden;rotatable=0;points=[[0,0.5],[1,0.5]];portConstraint=eastwest;whiteSpace=wrap;html=1;fontColor=#1A1A1A;labelBackgroundColor=none;" parent="hoG8hrJg9u2dqEjmSY5--218" vertex="1">
          <mxGeometry y="275" width="293.5" height="26" as="geometry" />
        </mxCell>
        <mxCell id="hoG8hrJg9u2dqEjmSY5--231" value="&lt;i style=&quot;border-color: var(--border-color);&quot;&gt;&amp;lt;&amp;lt;property&amp;gt;&amp;gt;&amp;nbsp;&lt;/i&gt;+ TileName: string { get; set; }" style="text;strokeColor=none;fillColor=none;align=left;verticalAlign=top;spacingLeft=4;spacingRight=4;overflow=hidden;rotatable=0;points=[[0,0.5],[1,0.5]];portConstraint=eastwest;whiteSpace=wrap;html=1;fontColor=#1A1A1A;labelBackgroundColor=none;" parent="hoG8hrJg9u2dqEjmSY5--218" vertex="1">
          <mxGeometry y="301" width="293.5" height="26" as="geometry" />
        </mxCell>
        <mxCell id="hoG8hrJg9u2dqEjmSY5--233" value="&lt;i style=&quot;border-color: var(--border-color);&quot;&gt;&amp;lt;&amp;lt;property&amp;gt;&amp;gt;&amp;nbsp;&lt;/i&gt;+ TileDescription : string { get; set; }" style="text;strokeColor=none;fillColor=none;align=left;verticalAlign=top;spacingLeft=4;spacingRight=4;overflow=hidden;rotatable=0;points=[[0,0.5],[1,0.5]];portConstraint=eastwest;whiteSpace=wrap;html=1;fontColor=#1A1A1A;labelBackgroundColor=none;" parent="hoG8hrJg9u2dqEjmSY5--218" vertex="1">
          <mxGeometry y="327" width="293.5" height="26" as="geometry" />
        </mxCell>
        <mxCell id="hoG8hrJg9u2dqEjmSY5--232" value="&lt;i style=&quot;border-color: var(--border-color);&quot;&gt;&amp;lt;&amp;lt;property&amp;gt;&amp;gt;&amp;nbsp;&lt;/i&gt;+ TileType : TileType { get; set; }" style="text;strokeColor=none;fillColor=none;align=left;verticalAlign=top;spacingLeft=4;spacingRight=4;overflow=hidden;rotatable=0;points=[[0,0.5],[1,0.5]];portConstraint=eastwest;whiteSpace=wrap;html=1;fontColor=#1A1A1A;labelBackgroundColor=none;" parent="hoG8hrJg9u2dqEjmSY5--218" vertex="1">
          <mxGeometry y="353" width="293.5" height="26" as="geometry" />
        </mxCell>
        <mxCell id="hoG8hrJg9u2dqEjmSY5--234" value="1" style="endArrow=open;html=1;endSize=12;startArrow=diamondThin;startSize=14;startFill=0;edgeStyle=orthogonalEdgeStyle;align=left;verticalAlign=bottom;rounded=0;strokeColor=#182E3E;fontColor=default;exitX=0.472;exitY=1.024;exitDx=0;exitDy=0;exitPerimeter=0;entryX=0.5;entryY=0;entryDx=0;entryDy=0;labelBackgroundColor=none;" parent="WIyWlLk6GJQsqaUBKTNV-1" source="hoG8hrJg9u2dqEjmSY5--122" target="E0za_TwsvS94xBCFmi1X-4" edge="1">
          <mxGeometry x="-0.5065" y="7" relative="1" as="geometry">
            <mxPoint x="400" y="740" as="sourcePoint" />
            <mxPoint x="375.9200000000001" y="759" as="targetPoint" />
            <mxPoint as="offset" />
          </mxGeometry>
        </mxCell>
        <mxCell id="hoG8hrJg9u2dqEjmSY5--235" value="" style="endArrow=none;html=1;rounded=0;strokeColor=#182E3E;fontColor=default;entryX=0.5;entryY=1;entryDx=0;entryDy=0;exitX=1;exitY=0.5;exitDx=0;exitDy=0;labelBackgroundColor=none;" parent="WIyWlLk6GJQsqaUBKTNV-1" source="VIdfA7fjar5SBpBOEZts-1" target="hoG8hrJg9u2dqEjmSY5--160" edge="1">
          <mxGeometry width="50" height="50" relative="1" as="geometry">
            <mxPoint x="549" y="-665" as="sourcePoint" />
            <mxPoint x="605" y="-697" as="targetPoint" />
            <Array as="points">
              <mxPoint x="659" y="-741" />
            </Array>
          </mxGeometry>
        </mxCell>
        <mxCell id="hoG8hrJg9u2dqEjmSY5--236" value="" style="endArrow=none;html=1;rounded=0;strokeColor=#182E3E;fontColor=default;entryX=0.5;entryY=0;entryDx=0;entryDy=0;exitX=1;exitY=0.5;exitDx=0;exitDy=0;labelBackgroundColor=none;" parent="WIyWlLk6GJQsqaUBKTNV-1" source="VIdfA7fjar5SBpBOEZts-42" target="hoG8hrJg9u2dqEjmSY5--162" edge="1">
          <mxGeometry width="50" height="50" relative="1" as="geometry">
            <mxPoint x="547" y="309" as="sourcePoint" />
            <mxPoint x="597" y="259" as="targetPoint" />
            <Array as="points">
              <mxPoint x="664" y="411" />
            </Array>
          </mxGeometry>
        </mxCell>
        <mxCell id="hoG8hrJg9u2dqEjmSY5--237" value="" style="endArrow=none;html=1;rounded=0;strokeColor=#182E3E;fontColor=default;exitX=1;exitY=0.5;exitDx=0;exitDy=0;entryX=0;entryY=0.5;entryDx=0;entryDy=0;labelBackgroundColor=none;" parent="WIyWlLk6GJQsqaUBKTNV-1" source="hoG8hrJg9u2dqEjmSY5--161" target="hoG8hrJg9u2dqEjmSY5--129" edge="1">
          <mxGeometry width="50" height="50" relative="1" as="geometry">
            <mxPoint x="-249" y="781" as="sourcePoint" />
            <mxPoint x="-199" y="731" as="targetPoint" />
          </mxGeometry>
        </mxCell>
        <mxCell id="hoG8hrJg9u2dqEjmSY5--238" value="1" style="endArrow=open;html=1;endSize=12;startArrow=diamondThin;startSize=14;startFill=0;edgeStyle=orthogonalEdgeStyle;align=left;verticalAlign=bottom;rounded=0;strokeColor=#182E3E;fontColor=default;exitX=0.495;exitY=0.976;exitDx=0;exitDy=0;exitPerimeter=0;entryX=0.451;entryY=0.004;entryDx=0;entryDy=0;entryPerimeter=0;labelBackgroundColor=none;" parent="WIyWlLk6GJQsqaUBKTNV-1" source="hoG8hrJg9u2dqEjmSY5--128" target="hoG8hrJg9u2dqEjmSY5--156" edge="1">
          <mxGeometry x="-0.2667" y="4" relative="1" as="geometry">
            <mxPoint x="-304" y="756" as="sourcePoint" />
            <mxPoint x="-144" y="756" as="targetPoint" />
            <mxPoint as="offset" />
          </mxGeometry>
        </mxCell>
        <mxCell id="hoG8hrJg9u2dqEjmSY5--239" value="" style="endArrow=block;dashed=1;endFill=0;endSize=12;html=1;rounded=0;strokeColor=#182E3E;fontColor=default;entryX=1;entryY=0.5;entryDx=0;entryDy=0;exitX=0;exitY=0.5;exitDx=0;exitDy=0;labelBackgroundColor=none;" parent="WIyWlLk6GJQsqaUBKTNV-1" source="hoG8hrJg9u2dqEjmSY5--189" target="hoG8hrJg9u2dqEjmSY5--181" edge="1">
          <mxGeometry width="160" relative="1" as="geometry">
            <mxPoint x="-168" y="-572" as="sourcePoint" />
            <mxPoint x="-8" y="-572" as="targetPoint" />
          </mxGeometry>
        </mxCell>
        <mxCell id="hoG8hrJg9u2dqEjmSY5--240" value="" style="endArrow=block;dashed=1;endFill=0;endSize=12;html=1;rounded=0;strokeColor=#182E3E;fontColor=default;entryX=1;entryY=0.5;entryDx=0;entryDy=0;exitX=0;exitY=0.5;exitDx=0;exitDy=0;labelBackgroundColor=none;" parent="WIyWlLk6GJQsqaUBKTNV-1" source="hoG8hrJg9u2dqEjmSY5--194" target="hoG8hrJg9u2dqEjmSY5--182" edge="1">
          <mxGeometry width="160" relative="1" as="geometry">
            <mxPoint x="-97.5" y="-688" as="sourcePoint" />
            <mxPoint x="-159.5" y="-688" as="targetPoint" />
          </mxGeometry>
        </mxCell>
        <mxCell id="hoG8hrJg9u2dqEjmSY5--241" value="1" style="endArrow=open;html=1;endSize=12;startArrow=diamondThin;startSize=14;startFill=1;edgeStyle=orthogonalEdgeStyle;align=left;verticalAlign=bottom;rounded=0;strokeColor=#182E3E;fontColor=default;exitX=0;exitY=0.5;exitDx=0;exitDy=0;entryX=1;entryY=0.5;entryDx=0;entryDy=0;labelBackgroundColor=none;" parent="WIyWlLk6GJQsqaUBKTNV-1" source="VIdfA7fjar5SBpBOEZts-5" target="hoG8hrJg9u2dqEjmSY5--127" edge="1">
          <mxGeometry x="-0.7346" y="23" relative="1" as="geometry">
            <mxPoint x="3" y="-509" as="sourcePoint" />
            <mxPoint x="163" y="-509" as="targetPoint" />
            <mxPoint as="offset" />
          </mxGeometry>
        </mxCell>
        <mxCell id="hoG8hrJg9u2dqEjmSY5--242" value="1" style="endArrow=open;html=1;endSize=12;startArrow=diamondThin;startSize=14;startFill=1;edgeStyle=orthogonalEdgeStyle;align=left;verticalAlign=bottom;rounded=0;strokeColor=#182E3E;fontColor=default;exitX=0;exitY=0.5;exitDx=0;exitDy=0;entryX=1;entryY=0.5;entryDx=0;entryDy=0;labelBackgroundColor=none;" parent="WIyWlLk6GJQsqaUBKTNV-1" source="hoG8hrJg9u2dqEjmSY5--1" target="hoG8hrJg9u2dqEjmSY5--184" edge="1">
          <mxGeometry x="-0.8506" y="27" relative="1" as="geometry">
            <mxPoint x="166" y="-478" as="sourcePoint" />
            <mxPoint x="54" y="-477" as="targetPoint" />
            <mxPoint as="offset" />
          </mxGeometry>
        </mxCell>
        <mxCell id="hoG8hrJg9u2dqEjmSY5--244" value="1" style="endArrow=open;html=1;endSize=12;startArrow=diamondThin;startSize=14;startFill=0;edgeStyle=orthogonalEdgeStyle;align=left;verticalAlign=bottom;rounded=0;strokeColor=#182E3E;fontColor=default;exitX=0;exitY=0.5;exitDx=0;exitDy=0;entryX=1;entryY=0.5;entryDx=0;entryDy=0;labelBackgroundColor=none;" parent="WIyWlLk6GJQsqaUBKTNV-1" source="hoG8hrJg9u2dqEjmSY5--198" target="hoG8hrJg9u2dqEjmSY5--205" edge="1">
          <mxGeometry x="-0.7347" y="21" relative="1" as="geometry">
            <mxPoint x="427" y="-868" as="sourcePoint" />
            <mxPoint x="587" y="-868" as="targetPoint" />
            <mxPoint as="offset" />
          </mxGeometry>
        </mxCell>
        <mxCell id="hoG8hrJg9u2dqEjmSY5--245" value="1" style="endArrow=open;html=1;endSize=12;startArrow=diamondThin;startSize=14;startFill=1;edgeStyle=orthogonalEdgeStyle;align=left;verticalAlign=bottom;rounded=0;strokeColor=#182E3E;fontColor=default;exitX=0.5;exitY=0;exitDx=0;exitDy=0;entryX=0.502;entryY=1.014;entryDx=0;entryDy=0;entryPerimeter=0;labelBackgroundColor=none;" parent="WIyWlLk6GJQsqaUBKTNV-1" source="VIdfA7fjar5SBpBOEZts-0" target="hoG8hrJg9u2dqEjmSY5--202" edge="1">
          <mxGeometry x="-0.9311" y="-6" relative="1" as="geometry">
            <mxPoint x="282" y="-936" as="sourcePoint" />
            <mxPoint x="442" y="-936" as="targetPoint" />
            <mxPoint as="offset" />
          </mxGeometry>
        </mxCell>
        <mxCell id="hoG8hrJg9u2dqEjmSY5--246" value="1" style="endArrow=open;html=1;endSize=12;startArrow=diamondThin;startSize=14;startFill=1;edgeStyle=orthogonalEdgeStyle;align=left;verticalAlign=bottom;rounded=0;strokeColor=#182E3E;fontColor=default;exitX=0.455;exitY=1.027;exitDx=0;exitDy=0;exitPerimeter=0;entryX=0.5;entryY=0;entryDx=0;entryDy=0;labelBackgroundColor=none;" parent="WIyWlLk6GJQsqaUBKTNV-1" source="hoG8hrJg9u2dqEjmSY5--132" target="hoG8hrJg9u2dqEjmSY5--218" edge="1">
          <mxGeometry x="-0.6342" y="9" relative="1" as="geometry">
            <mxPoint x="1119" y="-299" as="sourcePoint" />
            <mxPoint x="1279" y="-299" as="targetPoint" />
            <mxPoint as="offset" />
          </mxGeometry>
        </mxCell>
        <mxCell id="hoG8hrJg9u2dqEjmSY5--247" value="1" style="endArrow=open;html=1;endSize=12;startArrow=diamondThin;startSize=14;startFill=1;edgeStyle=orthogonalEdgeStyle;align=left;verticalAlign=bottom;rounded=0;strokeColor=#182E3E;fontColor=default;exitX=1;exitY=0.5;exitDx=0;exitDy=0;entryX=0.5;entryY=0;entryDx=0;entryDy=0;labelBackgroundColor=none;" parent="WIyWlLk6GJQsqaUBKTNV-1" source="VIdfA7fjar5SBpBOEZts-7" target="hoG8hrJg9u2dqEjmSY5--206" edge="1">
          <mxGeometry x="-0.9861" y="-26" relative="1" as="geometry">
            <mxPoint x="614" y="-477" as="sourcePoint" />
            <mxPoint x="774" y="-477" as="targetPoint" />
            <mxPoint as="offset" />
          </mxGeometry>
        </mxCell>
        <mxCell id="hoG8hrJg9u2dqEjmSY5--249" value="" style="endArrow=none;html=1;rounded=0;strokeColor=#182E3E;fontColor=default;entryX=1;entryY=0.5;entryDx=0;entryDy=0;exitX=0.5;exitY=1;exitDx=0;exitDy=0;labelBackgroundColor=none;" parent="WIyWlLk6GJQsqaUBKTNV-1" source="hoG8hrJg9u2dqEjmSY5--166" target="hoG8hrJg9u2dqEjmSY5--141" edge="1">
          <mxGeometry width="50" height="50" relative="1" as="geometry">
            <mxPoint x="1102" y="-32" as="sourcePoint" />
            <mxPoint x="1152" y="-82" as="targetPoint" />
            <Array as="points">
              <mxPoint x="1519" y="-183" />
            </Array>
          </mxGeometry>
        </mxCell>
        <mxCell id="hoG8hrJg9u2dqEjmSY5--251" value="40" style="text;html=1;align=center;verticalAlign=middle;resizable=0;points=[];autosize=1;strokeColor=none;fillColor=none;fontColor=#1A1A1A;labelBackgroundColor=none;" parent="WIyWlLk6GJQsqaUBKTNV-1" vertex="1">
          <mxGeometry x="1227" y="-336" width="31" height="26" as="geometry" />
        </mxCell>
        <mxCell id="hoG8hrJg9u2dqEjmSY5--252" value="Go : Tile" style="swimlane;fontStyle=1;align=center;verticalAlign=top;childLayout=stackLayout;horizontal=1;startSize=26;horizontalStack=0;resizeParent=1;resizeParentMax=0;resizeLast=0;collapsible=1;marginBottom=0;whiteSpace=wrap;html=1;strokeColor=#909090;fontColor=#1A1A1A;fillColor=#F5AB50;labelBackgroundColor=none;" parent="WIyWlLk6GJQsqaUBKTNV-1" vertex="1">
          <mxGeometry x="698" y="-517" width="232" height="142" as="geometry" />
        </mxCell>
        <mxCell id="hoG8hrJg9u2dqEjmSY5--253" value="- _amountStart : int" style="text;strokeColor=none;fillColor=none;align=left;verticalAlign=top;spacingLeft=4;spacingRight=4;overflow=hidden;rotatable=0;points=[[0,0.5],[1,0.5]];portConstraint=eastwest;whiteSpace=wrap;html=1;fontColor=#1A1A1A;labelBackgroundColor=none;" parent="hoG8hrJg9u2dqEjmSY5--252" vertex="1">
          <mxGeometry y="26" width="232" height="26" as="geometry" />
        </mxCell>
        <mxCell id="hoG8hrJg9u2dqEjmSY5--254" value="" style="line;strokeWidth=1;fillColor=none;align=left;verticalAlign=middle;spacingTop=-1;spacingLeft=3;spacingRight=3;rotatable=0;labelPosition=right;points=[];portConstraint=eastwest;strokeColor=#909090;fontColor=#1A1A1A;labelBackgroundColor=none;" parent="hoG8hrJg9u2dqEjmSY5--252" vertex="1">
          <mxGeometry y="52" width="232" height="8" as="geometry" />
        </mxCell>
        <mxCell id="hoG8hrJg9u2dqEjmSY5--255" value="&lt;i&gt;&amp;lt;&amp;lt;constructor&amp;gt;&amp;gt;&lt;/i&gt; + Go(int position, string tileName, string tileDescription, int amountStart)" style="text;strokeColor=none;fillColor=none;align=left;verticalAlign=top;spacingLeft=4;spacingRight=4;overflow=hidden;rotatable=0;points=[[0,0.5],[1,0.5]];portConstraint=eastwest;whiteSpace=wrap;html=1;fontColor=#1A1A1A;labelBackgroundColor=none;" parent="hoG8hrJg9u2dqEjmSY5--252" vertex="1">
          <mxGeometry y="60" width="232" height="56" as="geometry" />
        </mxCell>
        <mxCell id="hoG8hrJg9u2dqEjmSY5--256" value="&lt;i style=&quot;border-color: var(--border-color);&quot;&gt;&amp;lt;&amp;lt;property&amp;gt;&amp;gt;&amp;nbsp;&lt;/i&gt;+ AmountStart : int { get; }" style="text;strokeColor=none;fillColor=none;align=left;verticalAlign=top;spacingLeft=4;spacingRight=4;overflow=hidden;rotatable=0;points=[[0,0.5],[1,0.5]];portConstraint=eastwest;whiteSpace=wrap;html=1;fontColor=#1A1A1A;labelBackgroundColor=none;" parent="hoG8hrJg9u2dqEjmSY5--252" vertex="1">
          <mxGeometry y="116" width="232" height="26" as="geometry" />
        </mxCell>
        <mxCell id="hoG8hrJg9u2dqEjmSY5--262" value="VisitingJail : Tile" style="swimlane;fontStyle=1;align=center;verticalAlign=top;childLayout=stackLayout;horizontal=1;startSize=26;horizontalStack=0;resizeParent=1;resizeParentMax=0;resizeLast=0;collapsible=1;marginBottom=0;whiteSpace=wrap;html=1;strokeColor=#909090;fontColor=#1A1A1A;fillColor=#F5AB50;labelBackgroundColor=none;" parent="WIyWlLk6GJQsqaUBKTNV-1" vertex="1">
          <mxGeometry x="666" y="-226" width="239" height="76" as="geometry" />
        </mxCell>
        <mxCell id="hoG8hrJg9u2dqEjmSY5--264" value="" style="line;strokeWidth=1;fillColor=none;align=left;verticalAlign=middle;spacingTop=-1;spacingLeft=3;spacingRight=3;rotatable=0;labelPosition=right;points=[];portConstraint=eastwest;strokeColor=#909090;fontColor=#1A1A1A;labelBackgroundColor=none;" parent="hoG8hrJg9u2dqEjmSY5--262" vertex="1">
          <mxGeometry y="26" width="239" height="8" as="geometry" />
        </mxCell>
        <mxCell id="hoG8hrJg9u2dqEjmSY5--265" value="&lt;i&gt;&amp;lt;&amp;lt;constructor&amp;gt;&amp;gt;&lt;/i&gt; + VisitingJail(int position, string tileName, string tileDescription)" style="text;strokeColor=none;fillColor=none;align=left;verticalAlign=top;spacingLeft=4;spacingRight=4;overflow=hidden;rotatable=0;points=[[0,0.5],[1,0.5]];portConstraint=eastwest;whiteSpace=wrap;html=1;fontColor=#1A1A1A;labelBackgroundColor=none;" parent="hoG8hrJg9u2dqEjmSY5--262" vertex="1">
          <mxGeometry y="34" width="239" height="42" as="geometry" />
        </mxCell>
        <mxCell id="hoG8hrJg9u2dqEjmSY5--267" value="Tax : Tile" style="swimlane;fontStyle=1;align=center;verticalAlign=top;childLayout=stackLayout;horizontal=1;startSize=26;horizontalStack=0;resizeParent=1;resizeParentMax=0;resizeLast=0;collapsible=1;marginBottom=0;whiteSpace=wrap;html=1;strokeColor=#909090;fontColor=#1A1A1A;fillColor=#F5AB50;labelBackgroundColor=none;" parent="WIyWlLk6GJQsqaUBKTNV-1" vertex="1">
          <mxGeometry x="673" y="-117.5" width="225" height="139" as="geometry" />
        </mxCell>
        <mxCell id="hoG8hrJg9u2dqEjmSY5--268" value="- _payTax : int" style="text;strokeColor=none;fillColor=none;align=left;verticalAlign=top;spacingLeft=4;spacingRight=4;overflow=hidden;rotatable=0;points=[[0,0.5],[1,0.5]];portConstraint=eastwest;whiteSpace=wrap;html=1;fontColor=#1A1A1A;labelBackgroundColor=none;" parent="hoG8hrJg9u2dqEjmSY5--267" vertex="1">
          <mxGeometry y="26" width="225" height="26" as="geometry" />
        </mxCell>
        <mxCell id="hoG8hrJg9u2dqEjmSY5--269" value="" style="line;strokeWidth=1;fillColor=none;align=left;verticalAlign=middle;spacingTop=-1;spacingLeft=3;spacingRight=3;rotatable=0;labelPosition=right;points=[];portConstraint=eastwest;strokeColor=#909090;fontColor=#1A1A1A;labelBackgroundColor=none;" parent="hoG8hrJg9u2dqEjmSY5--267" vertex="1">
          <mxGeometry y="52" width="225" height="8" as="geometry" />
        </mxCell>
        <mxCell id="hoG8hrJg9u2dqEjmSY5--270" value="&lt;i&gt;&amp;lt;&amp;lt;constructor&amp;gt;&amp;gt;&lt;/i&gt; + Tax(int position, string tileName, string tileDescription, int payTax)" style="text;strokeColor=none;fillColor=none;align=left;verticalAlign=top;spacingLeft=4;spacingRight=4;overflow=hidden;rotatable=0;points=[[0,0.5],[1,0.5]];portConstraint=eastwest;whiteSpace=wrap;html=1;fontColor=#1A1A1A;labelBackgroundColor=none;" parent="hoG8hrJg9u2dqEjmSY5--267" vertex="1">
          <mxGeometry y="60" width="225" height="53" as="geometry" />
        </mxCell>
        <mxCell id="hoG8hrJg9u2dqEjmSY5--271" value="&lt;i style=&quot;border-color: var(--border-color);&quot;&gt;&amp;lt;&amp;lt;property&amp;gt;&amp;gt;&amp;nbsp;&lt;/i&gt;+ PayTax : int { get; set; }" style="text;strokeColor=none;fillColor=none;align=left;verticalAlign=top;spacingLeft=4;spacingRight=4;overflow=hidden;rotatable=0;points=[[0,0.5],[1,0.5]];portConstraint=eastwest;whiteSpace=wrap;html=1;fontColor=#1A1A1A;labelBackgroundColor=none;" parent="hoG8hrJg9u2dqEjmSY5--267" vertex="1">
          <mxGeometry y="113" width="225" height="26" as="geometry" />
        </mxCell>
        <mxCell id="hoG8hrJg9u2dqEjmSY5--272" value="Utility : Tile" style="swimlane;fontStyle=1;align=center;verticalAlign=top;childLayout=stackLayout;horizontal=1;startSize=26;horizontalStack=0;resizeParent=1;resizeParentMax=0;resizeLast=0;collapsible=1;marginBottom=0;whiteSpace=wrap;html=1;strokeColor=#909090;fontColor=#1A1A1A;fillColor=#F5AB50;labelBackgroundColor=none;" parent="WIyWlLk6GJQsqaUBKTNV-1" vertex="1">
          <mxGeometry x="1110.25" y="157" width="233" height="139" as="geometry" />
        </mxCell>
        <mxCell id="hoG8hrJg9u2dqEjmSY5--273" value="- _payUtility : int" style="text;strokeColor=none;fillColor=none;align=left;verticalAlign=top;spacingLeft=4;spacingRight=4;overflow=hidden;rotatable=0;points=[[0,0.5],[1,0.5]];portConstraint=eastwest;whiteSpace=wrap;html=1;fontColor=#1A1A1A;labelBackgroundColor=none;" parent="hoG8hrJg9u2dqEjmSY5--272" vertex="1">
          <mxGeometry y="26" width="233" height="26" as="geometry" />
        </mxCell>
        <mxCell id="hoG8hrJg9u2dqEjmSY5--274" value="" style="line;strokeWidth=1;fillColor=none;align=left;verticalAlign=middle;spacingTop=-1;spacingLeft=3;spacingRight=3;rotatable=0;labelPosition=right;points=[];portConstraint=eastwest;strokeColor=#909090;fontColor=#1A1A1A;labelBackgroundColor=none;" parent="hoG8hrJg9u2dqEjmSY5--272" vertex="1">
          <mxGeometry y="52" width="233" height="8" as="geometry" />
        </mxCell>
        <mxCell id="hoG8hrJg9u2dqEjmSY5--275" value="&lt;i&gt;&amp;lt;&amp;lt;constructor&amp;gt;&amp;gt;&lt;/i&gt; + Utility(int position, string tileName, string tileDescription, int payUtility)" style="text;strokeColor=none;fillColor=none;align=left;verticalAlign=top;spacingLeft=4;spacingRight=4;overflow=hidden;rotatable=0;points=[[0,0.5],[1,0.5]];portConstraint=eastwest;whiteSpace=wrap;html=1;fontColor=#1A1A1A;labelBackgroundColor=none;" parent="hoG8hrJg9u2dqEjmSY5--272" vertex="1">
          <mxGeometry y="60" width="233" height="53" as="geometry" />
        </mxCell>
        <mxCell id="hoG8hrJg9u2dqEjmSY5--276" value="&lt;i style=&quot;border-color: var(--border-color);&quot;&gt;&amp;lt;&amp;lt;property&amp;gt;&amp;gt;&amp;nbsp;&lt;/i&gt;+ PayUtility : int { get; set; }" style="text;strokeColor=none;fillColor=none;align=left;verticalAlign=top;spacingLeft=4;spacingRight=4;overflow=hidden;rotatable=0;points=[[0,0.5],[1,0.5]];portConstraint=eastwest;whiteSpace=wrap;html=1;fontColor=#1A1A1A;labelBackgroundColor=none;" parent="hoG8hrJg9u2dqEjmSY5--272" vertex="1">
          <mxGeometry y="113" width="233" height="26" as="geometry" />
        </mxCell>
        <mxCell id="hoG8hrJg9u2dqEjmSY5--278" value="Jail : Tile" style="swimlane;fontStyle=1;align=center;verticalAlign=top;childLayout=stackLayout;horizontal=1;startSize=26;horizontalStack=0;resizeParent=1;resizeParentMax=0;resizeLast=0;collapsible=1;marginBottom=0;whiteSpace=wrap;html=1;strokeColor=#909090;fontColor=#1A1A1A;fillColor=#F5AB50;labelBackgroundColor=none;" parent="WIyWlLk6GJQsqaUBKTNV-1" vertex="1">
          <mxGeometry x="674.88" y="115" width="221.25" height="137" as="geometry" />
        </mxCell>
        <mxCell id="hoG8hrJg9u2dqEjmSY5--279" value="- _payJail: int" style="text;strokeColor=none;fillColor=none;align=left;verticalAlign=top;spacingLeft=4;spacingRight=4;overflow=hidden;rotatable=0;points=[[0,0.5],[1,0.5]];portConstraint=eastwest;whiteSpace=wrap;html=1;fontColor=#1A1A1A;labelBackgroundColor=none;" parent="hoG8hrJg9u2dqEjmSY5--278" vertex="1">
          <mxGeometry y="26" width="221.25" height="26" as="geometry" />
        </mxCell>
        <mxCell id="hoG8hrJg9u2dqEjmSY5--280" value="" style="line;strokeWidth=1;fillColor=none;align=left;verticalAlign=middle;spacingTop=-1;spacingLeft=3;spacingRight=3;rotatable=0;labelPosition=right;points=[];portConstraint=eastwest;strokeColor=#909090;fontColor=#1A1A1A;labelBackgroundColor=none;" parent="hoG8hrJg9u2dqEjmSY5--278" vertex="1">
          <mxGeometry y="52" width="221.25" height="8" as="geometry" />
        </mxCell>
        <mxCell id="hoG8hrJg9u2dqEjmSY5--281" value="&lt;i&gt;&amp;lt;&amp;lt;constructor&amp;gt;&amp;gt;&lt;/i&gt; + Jail(int position, string tileName, string tileDescription, int payJail)" style="text;strokeColor=none;fillColor=none;align=left;verticalAlign=top;spacingLeft=4;spacingRight=4;overflow=hidden;rotatable=0;points=[[0,0.5],[1,0.5]];portConstraint=eastwest;whiteSpace=wrap;html=1;fontColor=#1A1A1A;labelBackgroundColor=none;" parent="hoG8hrJg9u2dqEjmSY5--278" vertex="1">
          <mxGeometry y="60" width="221.25" height="51" as="geometry" />
        </mxCell>
        <mxCell id="hoG8hrJg9u2dqEjmSY5--282" value="&lt;i style=&quot;border-color: var(--border-color);&quot;&gt;&amp;lt;&amp;lt;property&amp;gt;&amp;gt;&amp;nbsp;&lt;/i&gt;+ PayJail : int { get; set; }" style="text;strokeColor=none;fillColor=none;align=left;verticalAlign=top;spacingLeft=4;spacingRight=4;overflow=hidden;rotatable=0;points=[[0,0.5],[1,0.5]];portConstraint=eastwest;whiteSpace=wrap;html=1;fontColor=#1A1A1A;labelBackgroundColor=none;" parent="hoG8hrJg9u2dqEjmSY5--278" vertex="1">
          <mxGeometry y="111" width="221.25" height="26" as="geometry" />
        </mxCell>
        <mxCell id="hoG8hrJg9u2dqEjmSY5--283" value="Chance : Tile" style="swimlane;fontStyle=1;align=center;verticalAlign=top;childLayout=stackLayout;horizontal=1;startSize=26;horizontalStack=0;resizeParent=1;resizeParentMax=0;resizeLast=0;collapsible=1;marginBottom=0;whiteSpace=wrap;html=1;strokeColor=#909090;fontColor=#1A1A1A;fillColor=#F5AB50;labelBackgroundColor=none;" parent="WIyWlLk6GJQsqaUBKTNV-1" vertex="1">
          <mxGeometry x="1547" y="6" width="178" height="76" as="geometry" />
        </mxCell>
        <mxCell id="hoG8hrJg9u2dqEjmSY5--284" value="" style="line;strokeWidth=1;fillColor=none;align=left;verticalAlign=middle;spacingTop=-1;spacingLeft=3;spacingRight=3;rotatable=0;labelPosition=right;points=[];portConstraint=eastwest;strokeColor=#909090;fontColor=#1A1A1A;labelBackgroundColor=none;" parent="hoG8hrJg9u2dqEjmSY5--283" vertex="1">
          <mxGeometry y="26" width="178" height="8" as="geometry" />
        </mxCell>
        <mxCell id="hoG8hrJg9u2dqEjmSY5--285" value="&lt;i&gt;&amp;lt;&amp;lt;constructor&amp;gt;&amp;gt;&lt;/i&gt; + Chance(int position, string tileName)" style="text;strokeColor=none;fillColor=none;align=left;verticalAlign=top;spacingLeft=4;spacingRight=4;overflow=hidden;rotatable=0;points=[[0,0.5],[1,0.5]];portConstraint=eastwest;whiteSpace=wrap;html=1;fontColor=#1A1A1A;labelBackgroundColor=none;" parent="hoG8hrJg9u2dqEjmSY5--283" vertex="1">
          <mxGeometry y="34" width="178" height="42" as="geometry" />
        </mxCell>
        <mxCell id="hoG8hrJg9u2dqEjmSY5--286" value="CommunityChest : Tile" style="swimlane;fontStyle=1;align=center;verticalAlign=top;childLayout=stackLayout;horizontal=1;startSize=26;horizontalStack=0;resizeParent=1;resizeParentMax=0;resizeLast=0;collapsible=1;marginBottom=0;whiteSpace=wrap;html=1;strokeColor=#909090;fontColor=#1A1A1A;fillColor=#F5AB50;labelBackgroundColor=none;" parent="WIyWlLk6GJQsqaUBKTNV-1" vertex="1">
          <mxGeometry x="1401" y="179" width="178" height="90" as="geometry" />
        </mxCell>
        <mxCell id="hoG8hrJg9u2dqEjmSY5--287" value="" style="line;strokeWidth=1;fillColor=none;align=left;verticalAlign=middle;spacingTop=-1;spacingLeft=3;spacingRight=3;rotatable=0;labelPosition=right;points=[];portConstraint=eastwest;strokeColor=#909090;fontColor=#1A1A1A;labelBackgroundColor=none;" parent="hoG8hrJg9u2dqEjmSY5--286" vertex="1">
          <mxGeometry y="26" width="178" height="8" as="geometry" />
        </mxCell>
        <mxCell id="hoG8hrJg9u2dqEjmSY5--288" value="&lt;i&gt;&amp;lt;&amp;lt;constructor&amp;gt;&amp;gt;&lt;/i&gt; + CommunityChest(int position, string tileName)" style="text;strokeColor=none;fillColor=none;align=left;verticalAlign=top;spacingLeft=4;spacingRight=4;overflow=hidden;rotatable=0;points=[[0,0.5],[1,0.5]];portConstraint=eastwest;whiteSpace=wrap;html=1;fontColor=#1A1A1A;labelBackgroundColor=none;" parent="hoG8hrJg9u2dqEjmSY5--286" vertex="1">
          <mxGeometry y="34" width="178" height="56" as="geometry" />
        </mxCell>
        <mxCell id="hoG8hrJg9u2dqEjmSY5--294" value="Property : Tile" style="swimlane;fontStyle=1;align=center;verticalAlign=top;childLayout=stackLayout;horizontal=1;startSize=26;horizontalStack=0;resizeParent=1;resizeParentMax=0;resizeLast=0;collapsible=1;marginBottom=0;whiteSpace=wrap;html=1;strokeColor=#909090;fontColor=#1A1A1A;fillColor=#F5AB50;labelBackgroundColor=none;" parent="WIyWlLk6GJQsqaUBKTNV-1" vertex="1">
          <mxGeometry x="1794" y="-145" width="339" height="723" as="geometry" />
        </mxCell>
        <mxCell id="hoG8hrJg9u2dqEjmSY5--295" value="- _propType : PropertyType" style="text;strokeColor=none;fillColor=none;align=left;verticalAlign=top;spacingLeft=4;spacingRight=4;overflow=hidden;rotatable=0;points=[[0,0.5],[1,0.5]];portConstraint=eastwest;whiteSpace=wrap;html=1;fontColor=#1A1A1A;labelBackgroundColor=none;" parent="hoG8hrJg9u2dqEjmSY5--294" vertex="1">
          <mxGeometry y="26" width="339" height="26" as="geometry" />
        </mxCell>
        <mxCell id="hoG8hrJg9u2dqEjmSY5--321" value="- _buyProp : int" style="text;strokeColor=none;fillColor=none;align=left;verticalAlign=top;spacingLeft=4;spacingRight=4;overflow=hidden;rotatable=0;points=[[0,0.5],[1,0.5]];portConstraint=eastwest;whiteSpace=wrap;html=1;fontColor=#1A1A1A;labelBackgroundColor=none;" parent="hoG8hrJg9u2dqEjmSY5--294" vertex="1">
          <mxGeometry y="52" width="339" height="26" as="geometry" />
        </mxCell>
        <mxCell id="hoG8hrJg9u2dqEjmSY5--320" value="- _rentProp : int" style="text;strokeColor=none;fillColor=none;align=left;verticalAlign=top;spacingLeft=4;spacingRight=4;overflow=hidden;rotatable=0;points=[[0,0.5],[1,0.5]];portConstraint=eastwest;whiteSpace=wrap;html=1;fontColor=#1A1A1A;labelBackgroundColor=none;" parent="hoG8hrJg9u2dqEjmSY5--294" vertex="1">
          <mxGeometry y="78" width="339" height="26" as="geometry" />
        </mxCell>
        <mxCell id="hoG8hrJg9u2dqEjmSY5--319" value="- _housePrice : int" style="text;strokeColor=none;fillColor=none;align=left;verticalAlign=top;spacingLeft=4;spacingRight=4;overflow=hidden;rotatable=0;points=[[0,0.5],[1,0.5]];portConstraint=eastwest;whiteSpace=wrap;html=1;fontColor=#1A1A1A;labelBackgroundColor=none;" parent="hoG8hrJg9u2dqEjmSY5--294" vertex="1">
          <mxGeometry y="104" width="339" height="26" as="geometry" />
        </mxCell>
        <mxCell id="hoG8hrJg9u2dqEjmSY5--318" value="- _hotelPrice : int" style="text;strokeColor=none;fillColor=none;align=left;verticalAlign=top;spacingLeft=4;spacingRight=4;overflow=hidden;rotatable=0;points=[[0,0.5],[1,0.5]];portConstraint=eastwest;whiteSpace=wrap;html=1;fontColor=#1A1A1A;labelBackgroundColor=none;" parent="hoG8hrJg9u2dqEjmSY5--294" vertex="1">
          <mxGeometry y="130" width="339" height="26" as="geometry" />
        </mxCell>
        <mxCell id="hoG8hrJg9u2dqEjmSY5--317" value="- _ownerProp : string" style="text;strokeColor=none;fillColor=none;align=left;verticalAlign=top;spacingLeft=4;spacingRight=4;overflow=hidden;rotatable=0;points=[[0,0.5],[1,0.5]];portConstraint=eastwest;whiteSpace=wrap;html=1;fontColor=#1A1A1A;labelBackgroundColor=none;" parent="hoG8hrJg9u2dqEjmSY5--294" vertex="1">
          <mxGeometry y="156" width="339" height="26" as="geometry" />
        </mxCell>
        <mxCell id="hoG8hrJg9u2dqEjmSY5--316" value="- _numberOfHouse : int" style="text;strokeColor=none;fillColor=none;align=left;verticalAlign=top;spacingLeft=4;spacingRight=4;overflow=hidden;rotatable=0;points=[[0,0.5],[1,0.5]];portConstraint=eastwest;whiteSpace=wrap;html=1;fontColor=#1A1A1A;labelBackgroundColor=none;" parent="hoG8hrJg9u2dqEjmSY5--294" vertex="1">
          <mxGeometry y="182" width="339" height="26" as="geometry" />
        </mxCell>
        <mxCell id="hoG8hrJg9u2dqEjmSY5--322" value="- _numberOfHotel : int" style="text;strokeColor=none;fillColor=none;align=left;verticalAlign=top;spacingLeft=4;spacingRight=4;overflow=hidden;rotatable=0;points=[[0,0.5],[1,0.5]];portConstraint=eastwest;whiteSpace=wrap;html=1;fontColor=#1A1A1A;labelBackgroundColor=none;" parent="hoG8hrJg9u2dqEjmSY5--294" vertex="1">
          <mxGeometry y="208" width="339" height="26" as="geometry" />
        </mxCell>
        <mxCell id="hoG8hrJg9u2dqEjmSY5--323" value="- _propSituation : PropertySituation" style="text;strokeColor=none;fillColor=none;align=left;verticalAlign=top;spacingLeft=4;spacingRight=4;overflow=hidden;rotatable=0;points=[[0,0.5],[1,0.5]];portConstraint=eastwest;whiteSpace=wrap;html=1;fontColor=#1A1A1A;labelBackgroundColor=none;" parent="hoG8hrJg9u2dqEjmSY5--294" vertex="1">
          <mxGeometry y="234" width="339" height="26" as="geometry" />
        </mxCell>
        <mxCell id="hoG8hrJg9u2dqEjmSY5--296" value="" style="line;strokeWidth=1;fillColor=none;align=left;verticalAlign=middle;spacingTop=-1;spacingLeft=3;spacingRight=3;rotatable=0;labelPosition=right;points=[];portConstraint=eastwest;strokeColor=#909090;fontColor=#1A1A1A;labelBackgroundColor=none;" parent="hoG8hrJg9u2dqEjmSY5--294" vertex="1">
          <mxGeometry y="260" width="339" height="8" as="geometry" />
        </mxCell>
        <mxCell id="hoG8hrJg9u2dqEjmSY5--297" value="&lt;i&gt;&amp;lt;&amp;lt;constructor&amp;gt;&amp;gt;&lt;/i&gt; + Property(int position, string tileName, string tileDescription, int buyProp, int housePrice, int hotelPrice, int rentProp, PropertyType propType)" style="text;strokeColor=none;fillColor=none;align=left;verticalAlign=top;spacingLeft=4;spacingRight=4;overflow=hidden;rotatable=0;points=[[0,0.5],[1,0.5]];portConstraint=eastwest;whiteSpace=wrap;html=1;fontColor=#1A1A1A;labelBackgroundColor=none;" parent="hoG8hrJg9u2dqEjmSY5--294" vertex="1">
          <mxGeometry y="268" width="339" height="53" as="geometry" />
        </mxCell>
        <mxCell id="hoG8hrJg9u2dqEjmSY5--324" value="&lt;i&gt;&amp;lt;&amp;lt;constructor&amp;gt;&amp;gt;&lt;/i&gt; + Property(int position, string tileName, string tileDescription, PropertyType propType)" style="text;strokeColor=none;fillColor=none;align=left;verticalAlign=top;spacingLeft=4;spacingRight=4;overflow=hidden;rotatable=0;points=[[0,0.5],[1,0.5]];portConstraint=eastwest;whiteSpace=wrap;html=1;fontColor=#1A1A1A;labelBackgroundColor=none;" parent="hoG8hrJg9u2dqEjmSY5--294" vertex="1">
          <mxGeometry y="321" width="339" height="38" as="geometry" />
        </mxCell>
        <mxCell id="hoG8hrJg9u2dqEjmSY5--298" value="&lt;i style=&quot;border-color: var(--border-color);&quot;&gt;&amp;lt;&amp;lt;property&amp;gt;&amp;gt;&amp;nbsp;&lt;/i&gt;+ PropType : PropertyType { get; set; }" style="text;strokeColor=none;fillColor=none;align=left;verticalAlign=top;spacingLeft=4;spacingRight=4;overflow=hidden;rotatable=0;points=[[0,0.5],[1,0.5]];portConstraint=eastwest;whiteSpace=wrap;html=1;fontColor=#1A1A1A;labelBackgroundColor=none;" parent="hoG8hrJg9u2dqEjmSY5--294" vertex="1">
          <mxGeometry y="359" width="339" height="26" as="geometry" />
        </mxCell>
        <mxCell id="hoG8hrJg9u2dqEjmSY5--325" value="&lt;i style=&quot;border-color: var(--border-color);&quot;&gt;&amp;lt;&amp;lt;property&amp;gt;&amp;gt;&amp;nbsp;&lt;/i&gt;+ PropSituation : PropertySituation { get; set; }" style="text;strokeColor=none;fillColor=none;align=left;verticalAlign=top;spacingLeft=4;spacingRight=4;overflow=hidden;rotatable=0;points=[[0,0.5],[1,0.5]];portConstraint=eastwest;whiteSpace=wrap;html=1;fontColor=#1A1A1A;labelBackgroundColor=none;" parent="hoG8hrJg9u2dqEjmSY5--294" vertex="1">
          <mxGeometry y="385" width="339" height="26" as="geometry" />
        </mxCell>
        <mxCell id="hoG8hrJg9u2dqEjmSY5--328" value="&lt;i style=&quot;border-color: var(--border-color);&quot;&gt;&amp;lt;&amp;lt;property&amp;gt;&amp;gt;&amp;nbsp;&lt;/i&gt;+ BuyProp : int { get; set; }" style="text;strokeColor=none;fillColor=none;align=left;verticalAlign=top;spacingLeft=4;spacingRight=4;overflow=hidden;rotatable=0;points=[[0,0.5],[1,0.5]];portConstraint=eastwest;whiteSpace=wrap;html=1;fontColor=#1A1A1A;labelBackgroundColor=none;" parent="hoG8hrJg9u2dqEjmSY5--294" vertex="1">
          <mxGeometry y="411" width="339" height="26" as="geometry" />
        </mxCell>
        <mxCell id="hoG8hrJg9u2dqEjmSY5--329" value="&lt;i style=&quot;border-color: var(--border-color);&quot;&gt;&amp;lt;&amp;lt;property&amp;gt;&amp;gt;&amp;nbsp;&lt;/i&gt;+ RentProp : int { get; set; }" style="text;strokeColor=none;fillColor=none;align=left;verticalAlign=top;spacingLeft=4;spacingRight=4;overflow=hidden;rotatable=0;points=[[0,0.5],[1,0.5]];portConstraint=eastwest;whiteSpace=wrap;html=1;fontColor=#1A1A1A;labelBackgroundColor=none;" parent="hoG8hrJg9u2dqEjmSY5--294" vertex="1">
          <mxGeometry y="437" width="339" height="26" as="geometry" />
        </mxCell>
        <mxCell id="hoG8hrJg9u2dqEjmSY5--330" value="&lt;i style=&quot;border-color: var(--border-color);&quot;&gt;&amp;lt;&amp;lt;property&amp;gt;&amp;gt;&amp;nbsp;&lt;/i&gt;+ NumberOfHouse : int { get; set; }" style="text;strokeColor=none;fillColor=none;align=left;verticalAlign=top;spacingLeft=4;spacingRight=4;overflow=hidden;rotatable=0;points=[[0,0.5],[1,0.5]];portConstraint=eastwest;whiteSpace=wrap;html=1;fontColor=#1A1A1A;labelBackgroundColor=none;" parent="hoG8hrJg9u2dqEjmSY5--294" vertex="1">
          <mxGeometry y="463" width="339" height="26" as="geometry" />
        </mxCell>
        <mxCell id="hoG8hrJg9u2dqEjmSY5--331" value="&lt;i style=&quot;border-color: var(--border-color);&quot;&gt;&amp;lt;&amp;lt;property&amp;gt;&amp;gt;&amp;nbsp;&lt;/i&gt;+ NumberOfHotel : int { get; set; }" style="text;strokeColor=none;fillColor=none;align=left;verticalAlign=top;spacingLeft=4;spacingRight=4;overflow=hidden;rotatable=0;points=[[0,0.5],[1,0.5]];portConstraint=eastwest;whiteSpace=wrap;html=1;fontColor=#1A1A1A;labelBackgroundColor=none;" parent="hoG8hrJg9u2dqEjmSY5--294" vertex="1">
          <mxGeometry y="489" width="339" height="26" as="geometry" />
        </mxCell>
        <mxCell id="hoG8hrJg9u2dqEjmSY5--332" value="&lt;i style=&quot;border-color: var(--border-color);&quot;&gt;&amp;lt;&amp;lt;property&amp;gt;&amp;gt;&amp;nbsp;&lt;/i&gt;+ HousePrice : int { get; set; }" style="text;strokeColor=none;fillColor=none;align=left;verticalAlign=top;spacingLeft=4;spacingRight=4;overflow=hidden;rotatable=0;points=[[0,0.5],[1,0.5]];portConstraint=eastwest;whiteSpace=wrap;html=1;fontColor=#1A1A1A;labelBackgroundColor=none;" parent="hoG8hrJg9u2dqEjmSY5--294" vertex="1">
          <mxGeometry y="515" width="339" height="26" as="geometry" />
        </mxCell>
        <mxCell id="hoG8hrJg9u2dqEjmSY5--333" value="&lt;i style=&quot;border-color: var(--border-color);&quot;&gt;&amp;lt;&amp;lt;property&amp;gt;&amp;gt;&amp;nbsp;&lt;/i&gt;+ HotelPrice : int { get; set; }" style="text;strokeColor=none;fillColor=none;align=left;verticalAlign=top;spacingLeft=4;spacingRight=4;overflow=hidden;rotatable=0;points=[[0,0.5],[1,0.5]];portConstraint=eastwest;whiteSpace=wrap;html=1;fontColor=#1A1A1A;labelBackgroundColor=none;" parent="hoG8hrJg9u2dqEjmSY5--294" vertex="1">
          <mxGeometry y="541" width="339" height="26" as="geometry" />
        </mxCell>
        <mxCell id="hoG8hrJg9u2dqEjmSY5--334" value="&lt;i style=&quot;border-color: var(--border-color);&quot;&gt;&amp;lt;&amp;lt;property&amp;gt;&amp;gt;&amp;nbsp;&lt;/i&gt;+ Owner : string { get; }" style="text;strokeColor=none;fillColor=none;align=left;verticalAlign=top;spacingLeft=4;spacingRight=4;overflow=hidden;rotatable=0;points=[[0,0.5],[1,0.5]];portConstraint=eastwest;whiteSpace=wrap;html=1;fontColor=#1A1A1A;labelBackgroundColor=none;" parent="hoG8hrJg9u2dqEjmSY5--294" vertex="1">
          <mxGeometry y="567" width="339" height="26" as="geometry" />
        </mxCell>
        <mxCell id="hoG8hrJg9u2dqEjmSY5--335" value="+ SetOwner(string owner) : void" style="text;strokeColor=none;fillColor=none;align=left;verticalAlign=top;spacingLeft=4;spacingRight=4;overflow=hidden;rotatable=0;points=[[0,0.5],[1,0.5]];portConstraint=eastwest;whiteSpace=wrap;html=1;fontColor=#1A1A1A;labelBackgroundColor=none;" parent="hoG8hrJg9u2dqEjmSY5--294" vertex="1">
          <mxGeometry y="593" width="339" height="26" as="geometry" />
        </mxCell>
        <mxCell id="hoG8hrJg9u2dqEjmSY5--336" value="+ AddHouse() : void" style="text;strokeColor=none;fillColor=none;align=left;verticalAlign=top;spacingLeft=4;spacingRight=4;overflow=hidden;rotatable=0;points=[[0,0.5],[1,0.5]];portConstraint=eastwest;whiteSpace=wrap;html=1;fontColor=#1A1A1A;labelBackgroundColor=none;" parent="hoG8hrJg9u2dqEjmSY5--294" vertex="1">
          <mxGeometry y="619" width="339" height="26" as="geometry" />
        </mxCell>
        <mxCell id="hoG8hrJg9u2dqEjmSY5--339" value="+ AddHotel() : void" style="text;strokeColor=none;fillColor=none;align=left;verticalAlign=top;spacingLeft=4;spacingRight=4;overflow=hidden;rotatable=0;points=[[0,0.5],[1,0.5]];portConstraint=eastwest;whiteSpace=wrap;html=1;fontColor=#1A1A1A;labelBackgroundColor=none;" parent="hoG8hrJg9u2dqEjmSY5--294" vertex="1">
          <mxGeometry y="645" width="339" height="26" as="geometry" />
        </mxCell>
        <mxCell id="hoG8hrJg9u2dqEjmSY5--340" value="+ RemoveHouse() : void" style="text;strokeColor=none;fillColor=none;align=left;verticalAlign=top;spacingLeft=4;spacingRight=4;overflow=hidden;rotatable=0;points=[[0,0.5],[1,0.5]];portConstraint=eastwest;whiteSpace=wrap;html=1;fontColor=#1A1A1A;labelBackgroundColor=none;" parent="hoG8hrJg9u2dqEjmSY5--294" vertex="1">
          <mxGeometry y="671" width="339" height="26" as="geometry" />
        </mxCell>
        <mxCell id="hoG8hrJg9u2dqEjmSY5--341" value="+ RemoveHotel() : void" style="text;strokeColor=none;fillColor=none;align=left;verticalAlign=top;spacingLeft=4;spacingRight=4;overflow=hidden;rotatable=0;points=[[0,0.5],[1,0.5]];portConstraint=eastwest;whiteSpace=wrap;html=1;fontColor=#1A1A1A;labelBackgroundColor=none;" parent="hoG8hrJg9u2dqEjmSY5--294" vertex="1">
          <mxGeometry y="697" width="339" height="26" as="geometry" />
        </mxCell>
        <mxCell id="hoG8hrJg9u2dqEjmSY5--299" value="" style="endArrow=none;html=1;rounded=0;strokeColor=#182E3E;fontColor=default;entryX=0;entryY=0.5;entryDx=0;entryDy=0;exitX=1;exitY=0.5;exitDx=0;exitDy=0;labelBackgroundColor=none;" parent="WIyWlLk6GJQsqaUBKTNV-1" source="hoG8hrJg9u2dqEjmSY5--163" target="VIdfA7fjar5SBpBOEZts-45" edge="1">
          <mxGeometry width="50" height="50" relative="1" as="geometry">
            <mxPoint x="-98" y="379" as="sourcePoint" />
            <mxPoint x="-48" y="329" as="targetPoint" />
            <Array as="points">
              <mxPoint x="154" y="27" />
              <mxPoint x="154" y="515" />
            </Array>
          </mxGeometry>
        </mxCell>
        <mxCell id="hoG8hrJg9u2dqEjmSY5--304" value="Extends" style="endArrow=block;endSize=16;endFill=0;html=1;rounded=0;strokeColor=#182E3E;fontColor=default;entryX=0;entryY=0.5;entryDx=0;entryDy=0;exitX=1;exitY=0.5;exitDx=0;exitDy=0;labelBackgroundColor=none;" parent="WIyWlLk6GJQsqaUBKTNV-1" source="hoG8hrJg9u2dqEjmSY5--256" target="hoG8hrJg9u2dqEjmSY5--219" edge="1">
          <mxGeometry width="160" relative="1" as="geometry">
            <mxPoint x="951" y="-143" as="sourcePoint" />
            <mxPoint x="1111" y="-143" as="targetPoint" />
            <Array as="points">
              <mxPoint x="982" y="-387" />
              <mxPoint x="984" y="-261" />
            </Array>
          </mxGeometry>
        </mxCell>
        <mxCell id="hoG8hrJg9u2dqEjmSY5--305" value="Extends" style="endArrow=block;endSize=16;endFill=0;html=1;rounded=0;strokeColor=#182E3E;fontColor=default;entryX=0;entryY=0.5;entryDx=0;entryDy=0;exitX=1;exitY=0.25;exitDx=0;exitDy=0;labelBackgroundColor=none;" parent="WIyWlLk6GJQsqaUBKTNV-1" source="hoG8hrJg9u2dqEjmSY5--262" target="hoG8hrJg9u2dqEjmSY5--145" edge="1">
          <mxGeometry width="160" relative="1" as="geometry">
            <mxPoint x="951" y="-143" as="sourcePoint" />
            <mxPoint x="1111" y="-143" as="targetPoint" />
          </mxGeometry>
        </mxCell>
        <mxCell id="hoG8hrJg9u2dqEjmSY5--308" value="Extends" style="endArrow=block;endSize=16;endFill=0;html=1;rounded=0;strokeColor=#182E3E;fontColor=default;entryX=0;entryY=0.5;entryDx=0;entryDy=0;exitX=1;exitY=0.5;exitDx=0;exitDy=0;labelBackgroundColor=none;" parent="WIyWlLk6GJQsqaUBKTNV-1" source="hoG8hrJg9u2dqEjmSY5--268" target="hoG8hrJg9u2dqEjmSY5--229" edge="1">
          <mxGeometry width="160" relative="1" as="geometry">
            <mxPoint x="981" y="30" as="sourcePoint" />
            <mxPoint x="1141" y="30" as="targetPoint" />
          </mxGeometry>
        </mxCell>
        <mxCell id="hoG8hrJg9u2dqEjmSY5--309" value="Extends" style="endArrow=block;endSize=16;endFill=0;html=1;rounded=0;strokeColor=#182E3E;fontColor=default;entryX=0;entryY=0.5;entryDx=0;entryDy=0;exitX=0.5;exitY=0;exitDx=0;exitDy=0;labelBackgroundColor=none;" parent="WIyWlLk6GJQsqaUBKTNV-1" source="hoG8hrJg9u2dqEjmSY5--278" target="hoG8hrJg9u2dqEjmSY5--232" edge="1">
          <mxGeometry width="160" relative="1" as="geometry">
            <mxPoint x="926" y="30" as="sourcePoint" />
            <mxPoint x="1086" y="30" as="targetPoint" />
            <Array as="points">
              <mxPoint x="786" y="52" />
            </Array>
          </mxGeometry>
        </mxCell>
        <mxCell id="hoG8hrJg9u2dqEjmSY5--310" value="Extends" style="endArrow=block;endSize=16;endFill=0;html=1;rounded=0;strokeColor=#182E3E;fontColor=default;exitX=0.5;exitY=0;exitDx=0;exitDy=0;labelBackgroundColor=none;" parent="WIyWlLk6GJQsqaUBKTNV-1" source="hoG8hrJg9u2dqEjmSY5--272" target="hoG8hrJg9u2dqEjmSY5--232" edge="1">
          <mxGeometry width="160" relative="1" as="geometry">
            <mxPoint x="1288" y="-85" as="sourcePoint" />
            <mxPoint x="1448" y="-85" as="targetPoint" />
          </mxGeometry>
        </mxCell>
        <mxCell id="hoG8hrJg9u2dqEjmSY5--312" value="Extends" style="endArrow=block;endSize=16;endFill=0;html=1;rounded=0;strokeColor=#182E3E;fontColor=default;exitX=0.5;exitY=0;exitDx=0;exitDy=0;entryX=1;entryY=0.5;entryDx=0;entryDy=0;labelBackgroundColor=none;" parent="WIyWlLk6GJQsqaUBKTNV-1" source="hoG8hrJg9u2dqEjmSY5--286" target="hoG8hrJg9u2dqEjmSY5--232" edge="1">
          <mxGeometry x="-0.2608" width="160" relative="1" as="geometry">
            <mxPoint x="1528" y="74" as="sourcePoint" />
            <mxPoint x="1688" y="74" as="targetPoint" />
            <Array as="points">
              <mxPoint x="1490" y="52" />
            </Array>
            <mxPoint as="offset" />
          </mxGeometry>
        </mxCell>
        <mxCell id="hoG8hrJg9u2dqEjmSY5--313" value="Extends" style="endArrow=block;endSize=16;endFill=0;html=1;rounded=0;strokeColor=#182E3E;fontColor=default;entryX=1;entryY=0.5;entryDx=0;entryDy=0;exitX=0;exitY=0.25;exitDx=0;exitDy=0;labelBackgroundColor=none;" parent="WIyWlLk6GJQsqaUBKTNV-1" source="hoG8hrJg9u2dqEjmSY5--283" target="hoG8hrJg9u2dqEjmSY5--233" edge="1">
          <mxGeometry width="160" relative="1" as="geometry">
            <mxPoint x="1533" y="-67" as="sourcePoint" />
            <mxPoint x="1693" y="-67" as="targetPoint" />
          </mxGeometry>
        </mxCell>
        <mxCell id="hoG8hrJg9u2dqEjmSY5--342" value="Extends" style="endArrow=block;endSize=16;endFill=0;html=1;rounded=0;strokeColor=#182E3E;fontColor=default;entryX=1;entryY=0.5;entryDx=0;entryDy=0;exitX=0;exitY=0.5;exitDx=0;exitDy=0;labelBackgroundColor=none;" parent="WIyWlLk6GJQsqaUBKTNV-1" source="hoG8hrJg9u2dqEjmSY5--295" target="hoG8hrJg9u2dqEjmSY5--228" edge="1">
          <mxGeometry width="160" relative="1" as="geometry">
            <mxPoint x="1727" y="-122" as="sourcePoint" />
            <mxPoint x="1887" y="-122" as="targetPoint" />
          </mxGeometry>
        </mxCell>
        <mxCell id="hoG8hrJg9u2dqEjmSY5--343" value="" style="endArrow=none;html=1;rounded=0;strokeColor=#182E3E;fontColor=default;entryX=1;entryY=0.5;entryDx=0;entryDy=0;exitX=0;exitY=0.25;exitDx=0;exitDy=0;labelBackgroundColor=none;" parent="WIyWlLk6GJQsqaUBKTNV-1" source="hoG8hrJg9u2dqEjmSY5--165" target="hoG8hrJg9u2dqEjmSY5--295" edge="1">
          <mxGeometry width="50" height="50" relative="1" as="geometry">
            <mxPoint x="1982" y="117" as="sourcePoint" />
            <mxPoint x="2032" y="67" as="targetPoint" />
          </mxGeometry>
        </mxCell>
        <mxCell id="hoG8hrJg9u2dqEjmSY5--344" value="" style="endArrow=none;html=1;rounded=0;strokeColor=#182E3E;fontColor=default;entryX=1;entryY=0.5;entryDx=0;entryDy=0;exitX=0;exitY=0.25;exitDx=0;exitDy=0;labelBackgroundColor=none;" parent="WIyWlLk6GJQsqaUBKTNV-1" source="hoG8hrJg9u2dqEjmSY5--164" target="hoG8hrJg9u2dqEjmSY5--323" edge="1">
          <mxGeometry width="50" height="50" relative="1" as="geometry">
            <mxPoint x="1982" y="117" as="sourcePoint" />
            <mxPoint x="2032" y="67" as="targetPoint" />
          </mxGeometry>
        </mxCell>
        <mxCell id="hoG8hrJg9u2dqEjmSY5--345" value="1" style="endArrow=open;html=1;endSize=12;startArrow=diamondThin;startSize=14;startFill=1;edgeStyle=orthogonalEdgeStyle;align=left;verticalAlign=bottom;rounded=0;strokeColor=#182E3E;fontColor=default;exitX=0;exitY=0.5;exitDx=0;exitDy=0;entryX=1;entryY=0.5;entryDx=0;entryDy=0;labelBackgroundColor=none;" parent="WIyWlLk6GJQsqaUBKTNV-1" source="hoG8hrJg9u2dqEjmSY5--121" target="VIdfA7fjar5SBpBOEZts-34" edge="1">
          <mxGeometry x="-0.8759" y="-3" relative="1" as="geometry">
            <mxPoint x="-68" y="622" as="sourcePoint" />
            <mxPoint x="92" y="622" as="targetPoint" />
            <mxPoint as="offset" />
          </mxGeometry>
        </mxCell>
        <mxCell id="hoG8hrJg9u2dqEjmSY5--347" value="" style="endArrow=block;startArrow=block;endFill=1;startFill=1;html=1;rounded=0;strokeColor=#182E3E;fontColor=default;exitX=0.476;exitY=1.003;exitDx=0;exitDy=0;exitPerimeter=0;entryX=0.5;entryY=0;entryDx=0;entryDy=0;labelBackgroundColor=none;" parent="WIyWlLk6GJQsqaUBKTNV-1" source="hoG8hrJg9u2dqEjmSY5--180" target="VIdfA7fjar5SBpBOEZts-33" edge="1">
          <mxGeometry width="160" relative="1" as="geometry">
            <mxPoint x="-127" y="543" as="sourcePoint" />
            <mxPoint x="33" y="543" as="targetPoint" />
          </mxGeometry>
        </mxCell>
        <mxCell id="E0za_TwsvS94xBCFmi1X-4" value="&lt;b style=&quot;border-color: var(--border-color);&quot;&gt;ActionEventDelegate&lt;/b&gt;" style="swimlane;fontStyle=1;align=center;verticalAlign=top;childLayout=stackLayout;horizontal=1;startSize=26;horizontalStack=0;resizeParent=1;resizeParentMax=0;resizeLast=0;collapsible=1;marginBottom=0;whiteSpace=wrap;html=1;strokeColor=#909090;fontColor=#1A1A1A;fillColor=#F5AB50;" parent="WIyWlLk6GJQsqaUBKTNV-1" vertex="1">
          <mxGeometry x="201" y="760" width="348" height="114" as="geometry" />
        </mxCell>
        <mxCell id="E0za_TwsvS94xBCFmi1X-5" value="&lt;i style=&quot;border-color: var(--border-color);&quot;&gt;&amp;lt;&amp;lt;event&amp;gt;&amp;gt;&amp;nbsp;&lt;/i&gt;+ PlayerNotifiedJail : Action&amp;lt;IPlayer&amp;gt;" style="text;strokeColor=none;fillColor=none;align=left;verticalAlign=top;spacingLeft=4;spacingRight=4;overflow=hidden;rotatable=0;points=[[0,0.5],[1,0.5]];portConstraint=eastwest;whiteSpace=wrap;html=1;fontColor=#1A1A1A;" parent="E0za_TwsvS94xBCFmi1X-4" vertex="1">
          <mxGeometry y="26" width="348" height="25" as="geometry" />
        </mxCell>
        <mxCell id="E0za_TwsvS94xBCFmi1X-8" value="&lt;i style=&quot;border-color: var(--border-color);&quot;&gt;&amp;lt;&amp;lt;event&amp;gt;&amp;gt;&amp;nbsp;&lt;/i&gt;+ PlayerNotified : PlayerNotificationHandler" style="text;strokeColor=none;fillColor=none;align=left;verticalAlign=top;spacingLeft=4;spacingRight=4;overflow=hidden;rotatable=0;points=[[0,0.5],[1,0.5]];portConstraint=eastwest;whiteSpace=wrap;html=1;fontColor=#1A1A1A;" parent="E0za_TwsvS94xBCFmi1X-4" vertex="1">
          <mxGeometry y="51" width="348" height="25" as="geometry" />
        </mxCell>
        <mxCell id="E0za_TwsvS94xBCFmi1X-6" value="" style="line;strokeWidth=1;fillColor=none;align=left;verticalAlign=middle;spacingTop=-1;spacingLeft=3;spacingRight=3;rotatable=0;labelPosition=right;points=[];portConstraint=eastwest;strokeColor=inherit;fontColor=#1A1A1A;" parent="E0za_TwsvS94xBCFmi1X-4" vertex="1">
          <mxGeometry y="76" width="348" height="8" as="geometry" />
        </mxCell>
        <mxCell id="E0za_TwsvS94xBCFmi1X-7" value="&lt;i style=&quot;border-color: var(--border-color);&quot;&gt;&amp;lt;&amp;lt;delegate&amp;gt;&amp;gt;&amp;nbsp;&lt;/i&gt;+ PlayerNotificationHandler(string, string) : void" style="text;strokeColor=none;fillColor=none;align=left;verticalAlign=top;spacingLeft=4;spacingRight=4;overflow=hidden;rotatable=0;points=[[0,0.5],[1,0.5]];portConstraint=eastwest;whiteSpace=wrap;html=1;fontColor=#1A1A1A;" parent="E0za_TwsvS94xBCFmi1X-4" vertex="1">
          <mxGeometry y="84" width="348" height="30" as="geometry" />
        </mxCell>
      </root>
    </mxGraphModel>
  </diagram>
</mxfile>
